<svg width="30" height="30" viewBox="0 0 30 30" fill="none" xmlns="http://www.w3.org/2000/svg">
<g clip-path="url(#clip0)">
<path d="M11.7935 30C11.3057 29.9954 10.8396 29.7975 10.4975 29.4498C10.1554 29.102 9.96516 28.6328 9.96849 28.145V24.115H8.34349C7.96577 24.115 7.60351 23.965 7.33631 23.6981C7.0691 23.4311 6.91882 23.069 6.91849 22.6912V9.45625H23.1572V22.6875C23.1566 23.0649 23.0064 23.4267 22.7395 23.6935C22.4726 23.9604 22.1109 24.1106 21.7335 24.1112H20.1085V28.1425C20.1085 28.6265 19.9162 29.0907 19.574 29.433C19.2317 29.7752 18.7675 29.9675 18.2835 29.9675C17.7995 29.9675 17.3353 29.7752 16.993 29.433C16.6508 29.0907 16.4585 28.6265 16.4585 28.1425V24.1125H13.616V28.145C13.6193 28.6324 13.4294 29.1012 13.0878 29.4489C12.7463 29.7966 12.2809 29.9947 11.7935 30ZM26.0072 20.3525C25.5196 20.3482 25.0535 20.1506 24.7114 19.8031C24.3692 19.4555 24.1789 18.9864 24.1822 18.4988V11.25C24.1822 10.766 24.3745 10.3018 24.7168 9.95953C25.059 9.61728 25.5232 9.425 26.0072 9.425C26.4913 9.425 26.9555 9.61728 27.2977 9.95953C27.64 10.3018 27.8322 10.766 27.8322 11.25V18.5C27.8356 18.9881 27.6449 19.4576 27.3022 19.8052C26.9596 20.1528 26.4929 20.3501 26.0047 20.3538L26.0072 20.3525ZM3.99599 20.3525C3.50809 20.3489 3.04159 20.1517 2.69893 19.8044C2.35628 19.457 2.1655 18.9879 2.16849 18.5V11.25C2.16616 10.763 2.35689 10.2948 2.69893 9.9481C3.04098 9.60138 3.50646 9.40429 3.99349 9.4C4.48052 9.40429 4.94601 9.60138 5.28805 9.9481C5.63009 10.2948 5.82083 10.763 5.81849 11.25V18.5C5.82182 18.9877 5.63153 19.4568 5.28938 19.8043C4.94723 20.1519 4.48117 20.3495 3.99349 20.3538L3.99599 20.3525ZM23.121 8.2775H6.87849C7.02389 7.03767 7.49612 5.85874 8.24684 4.86137C8.99755 3.86401 9.9998 3.08402 11.151 2.60125L9.64974 0.425C9.60728 0.363244 9.58863 0.288198 9.59724 0.21375C9.6012 0.179592 9.61252 0.146701 9.63044 0.11735C9.64835 0.0879981 9.67242 0.0628864 9.70099 0.04375C9.74033 0.015454 9.78753 0.000157925 9.83599 0C9.88232 0.000455389 9.92785 0.0120506 9.96875 0.0338067C10.0097 0.0555627 10.0447 0.0868408 10.071 0.125L11.631 2.3925C13.7986 1.55402 16.2009 1.55402 18.3685 2.3925L19.9272 0.125C19.9534 0.0867657 19.9885 0.055431 20.0294 0.033666C20.0703 0.0119009 20.1159 0.000350862 20.1622 0C20.2111 1.22152e-05 20.2589 0.0143536 20.2997 0.04125C20.3545 0.0854873 20.3902 0.149026 20.3995 0.218786C20.4088 0.288546 20.391 0.359217 20.3497 0.41625L18.8497 2.59375C20.0007 3.07719 21.0026 3.85774 21.7529 4.85553C22.5032 5.85333 22.9749 7.03254 23.1197 8.2725L23.121 8.2775ZM18.5435 4.23375C18.3654 4.2335 18.1912 4.28611 18.043 4.38491C17.8948 4.4837 17.7793 4.62425 17.711 4.78876C17.6427 4.95326 17.6248 5.13433 17.6595 5.30902C17.6942 5.48372 17.7799 5.6442 17.9058 5.77014C18.0318 5.89609 18.1923 5.98183 18.367 6.01652C18.5417 6.0512 18.7227 6.03328 18.8872 5.965C19.0517 5.89673 19.1923 5.78118 19.2911 5.63298C19.3899 5.48479 19.4425 5.31061 19.4422 5.1325C19.4419 4.89424 19.3471 4.66583 19.1786 4.49735C19.0102 4.32888 18.7818 4.23408 18.5435 4.23375ZM11.5797 4.23375C11.4017 4.23375 11.2276 4.28657 11.0796 4.38551C10.9316 4.48446 10.8162 4.6251 10.7481 4.78962C10.68 4.95415 10.6623 5.13517 10.6971 5.30979C10.732 5.48441 10.8178 5.64477 10.9438 5.77059C11.0698 5.89641 11.2303 5.98202 11.4049 6.01661C11.5796 6.05119 11.7606 6.03319 11.925 5.96488C12.0895 5.89657 12.2299 5.78102 12.3287 5.63285C12.4274 5.48468 12.48 5.31056 12.4797 5.1325C12.4796 5.01399 12.456 4.89669 12.4104 4.78731C12.3648 4.67793 12.298 4.57864 12.2139 4.49514C12.1298 4.41163 12.0301 4.34556 11.9204 4.3007C11.8107 4.25584 11.6932 4.23309 11.5747 4.23375H11.5797Z" fill="white"/>
</g>
<defs>
<clipPath id="clip0">
<rect width="30" height="30" fill="white"/>
</clipPath>
</defs>
</svg>
