<svg width="40" height="40" viewBox="0 0 40 40" fill="none" xmlns="http://www.w3.org/2000/svg">
<path fill-rule="evenodd" clip-rule="evenodd" d="M24.375 5C24.375 4.65482 24.6548 4.375 25 4.375H36.25C36.5952 4.375 36.875 4.65482 36.875 5C36.875 5.34518 36.5952 5.625 36.25 5.625H31.25V10C31.25 10.3452 30.9702 10.625 30.625 10.625C30.2798 10.625 30 10.3452 30 10V5.625H25C24.6548 5.625 24.375 5.34518 24.375 5Z" fill="#636363"/>
<path fill-rule="evenodd" clip-rule="evenodd" d="M15.0178 30.997C15.7566 30.5919 16.1927 29.3959 15.5211 28.1711C14.8494 26.9464 13.6065 26.6711 12.8677 27.0762C12.1289 27.4814 11.6927 28.6774 12.3644 29.9022C13.036 31.1269 14.279 31.4022 15.0178 30.997ZM15.6188 32.0931C17.0958 31.2831 17.5427 29.2581 16.6171 27.5701C15.6914 25.8821 13.7437 25.1703 12.2667 25.9802C10.7896 26.7902 10.3427 28.8152 11.2684 30.5032C12.194 32.1912 14.1418 32.903 15.6188 32.0931Z" fill="#636363"/>
<path fill-rule="evenodd" clip-rule="evenodd" d="M16.9407 34.5046C19.3744 33.17 20.3235 29.6502 18.5896 26.4884C16.8558 23.3266 13.3777 22.2345 10.9439 23.5691C8.51022 24.9037 7.56119 28.4235 9.29504 31.5853C11.0289 34.7471 14.507 35.8392 16.9407 34.5046ZM17.5417 35.6006C20.7137 33.8612 21.6735 29.5124 19.6856 25.8874C17.6977 22.2623 13.5149 20.7337 10.3429 22.4731C7.17097 24.2125 6.21112 28.5613 8.19902 32.1863C10.1869 35.8114 14.3698 37.34 17.5417 35.6006Z" fill="#636363"/>
<path fill-rule="evenodd" clip-rule="evenodd" d="M27.2668 10.7629C23.8279 12.8082 15.5899 17.6814 9.76548 21.0393C7.67568 22.2441 6.65733 23.7594 6.14738 25.2344C5.71729 26.4784 5.64129 27.7118 5.62787 28.7675H7.93046C8.27564 28.7675 8.55546 29.0473 8.55546 29.3925C8.55546 29.7377 8.27564 30.0175 7.93046 30.0175H5C4.83424 30.0175 4.67527 29.9517 4.55806 29.8345C4.44085 29.7173 4.375 29.5583 4.375 29.3925L4.375 29.3684C4.37498 28.2046 4.37494 26.5356 4.96599 24.8259C5.56939 23.0806 6.77769 21.3189 9.14115 19.9563C14.9839 16.5879 23.2636 11.6897 26.6735 9.66147C26.7015 9.64482 26.7307 9.63038 26.761 9.61829C27.4095 9.35901 28.2346 9.31553 29.0949 9.44724C29.9653 9.58051 30.9183 9.89972 31.8487 10.4181C33.7142 11.4573 35.5128 13.3115 36.3712 16.1215C36.9326 17.9591 35.9856 19.7202 34.5576 20.7456C34.7594 21.3108 34.952 22.034 35.0209 22.7685C35.1095 23.7135 35.0087 24.8599 34.2253 25.6261C34.1914 25.6592 34.1539 25.6884 34.1135 25.713L17.9927 35.5337C17.6979 35.7133 17.3133 35.6199 17.1338 35.3251C16.9542 35.0304 17.0476 34.6458 17.3423 34.4662L33.3952 24.6869C33.7278 24.3214 33.852 23.6923 33.7763 22.8852C33.7277 22.3665 33.602 21.843 33.4604 21.402L20.8993 28.5216C20.599 28.6918 20.2175 28.5863 20.0473 28.286C19.8771 27.9857 19.9826 27.6043 20.2829 27.4341L33.4786 19.9549C33.4788 19.9548 33.4791 19.9547 33.4793 19.9545C34.8232 19.1875 35.5714 17.7818 35.1758 16.4867C34.4205 14.0143 32.8508 12.4072 31.2404 11.51C30.4329 11.0602 29.621 10.7924 28.9057 10.6828C28.2067 10.5758 27.6412 10.6257 27.2668 10.7629Z" fill="#636363"/>
</svg>
