<svg width="40" height="40" viewBox="0 0 40 40" fill="none" xmlns="http://www.w3.org/2000/svg">
<path fill-rule="evenodd" clip-rule="evenodd" d="M15.8417 9.65546C16.7465 7.83429 19.1178 5.16954 23.6357 5.62843C26.9004 5.96001 28.6434 7.39922 29.5187 9.1996C30.2415 10.6862 30.3365 12.3571 30.349 13.6269C31.2569 13.7193 32.3841 14.0182 33.3682 14.6725C34.6273 15.5095 35.625 16.9154 35.625 19.0888C35.625 22.0545 34.6993 23.8832 33.4123 24.9117C32.1466 25.9231 30.6377 26.0735 29.6223 25.9031C29.2819 25.8459 29.0523 25.5236 29.1094 25.1832C29.1666 24.8428 29.4889 24.6132 29.8293 24.6703C30.572 24.795 31.7002 24.6798 32.632 23.9351C33.5426 23.2075 34.375 21.7897 34.375 19.0888C34.375 17.3663 33.6147 16.3373 32.6762 15.7134C31.7041 15.0672 30.5144 14.844 29.7258 14.844C29.3806 14.844 29.1008 14.5642 29.1008 14.219C29.1008 12.8693 29.0911 11.1788 28.3946 9.74615C27.7316 8.38246 26.398 7.16542 23.5094 6.87203C19.0084 6.41486 17.0852 9.56171 16.6998 10.8557C16.6314 11.0853 16.4378 11.2556 16.2013 11.2942C15.9649 11.3327 15.7272 11.2327 15.5894 11.0367C15.5497 10.9801 15.3932 10.8276 15.0844 10.6632C14.7914 10.5072 14.4053 10.3646 13.9568 10.2937C13.0723 10.1538 11.9369 10.2898 10.7638 11.176C9.62643 12.0353 9.55911 13.4804 9.68158 14.0973C9.71802 14.2808 9.67033 14.4709 9.55161 14.6156C9.4329 14.7602 9.25564 14.844 9.06855 14.844C8.26429 14.844 7.29574 14.8596 6.50516 15.4442C5.75154 16.0014 5 17.2112 5 20.0002C5 21.8755 6.00065 23.0167 7.20224 23.7198C8.43328 24.4401 9.82475 24.6617 10.3871 24.6617C10.7323 24.6617 11.0121 24.9415 11.0121 25.2867C11.0121 25.6319 10.7323 25.9117 10.3871 25.9117C9.63089 25.9117 8.01632 25.6444 6.57095 24.7986C5.09613 23.9356 3.75 22.4336 3.75 20.0002C3.75 17.008 4.56096 15.3272 5.76198 14.4391C6.63378 13.7945 7.6257 13.6414 8.38989 13.6051C8.38952 12.605 8.71143 11.1599 10.0104 10.1786C11.4744 9.07262 12.9579 8.87013 14.1521 9.05901C14.7429 9.15246 15.2611 9.34111 15.6719 9.55983C15.7296 9.59057 15.7863 9.62249 15.8417 9.65546ZM16.4828 18.1514C16.756 18.3623 16.8065 18.7548 16.5955 19.028L13.6492 22.8437V27.5002C13.6492 27.8454 13.3694 28.1252 13.0242 28.1252C12.679 28.1252 12.3992 27.8454 12.3992 27.5002V22.6304C12.3992 22.4922 12.445 22.3579 12.5295 22.2485L15.6061 18.2641C15.8171 17.9909 16.2096 17.9404 16.4828 18.1514ZM23.159 18.1774C23.4178 17.949 23.8128 17.9737 24.0412 18.2325L27.5573 22.2169C27.6581 22.3311 27.7137 22.4781 27.7137 22.6304V27.5002C27.7137 27.8454 27.4339 28.1252 27.0887 28.1252C26.7435 28.1252 26.4637 27.8454 26.4637 27.5002V22.8668L23.104 19.0596C22.8756 18.8008 22.9002 18.4058 23.159 18.1774ZM20.0565 18.0211C20.4016 18.0211 20.6815 18.3009 20.6815 18.6461V27.5002C20.6815 27.8454 20.4016 28.1252 20.0565 28.1252C19.7113 28.1252 19.4315 27.8454 19.4315 27.5002V18.6461C19.4315 18.3009 19.7113 18.0211 20.0565 18.0211Z" fill="#636363"/>
<path fill-rule="evenodd" clip-rule="evenodd" d="M12.5 31.25C13.1904 31.25 13.75 30.6904 13.75 30C13.75 29.3096 13.1904 28.75 12.5 28.75C11.8096 28.75 11.25 29.3096 11.25 30C11.25 30.6904 11.8096 31.25 12.5 31.25ZM12.5 32.5C13.8807 32.5 15 31.3807 15 30C15 28.6193 13.8807 27.5 12.5 27.5C11.1193 27.5 10 28.6193 10 30C10 31.3807 11.1193 32.5 12.5 32.5Z" fill="#636363"/>
<path fill-rule="evenodd" clip-rule="evenodd" d="M20 31.25C20.6904 31.25 21.25 30.6904 21.25 30C21.25 29.3096 20.6904 28.75 20 28.75C19.3096 28.75 18.75 29.3096 18.75 30C18.75 30.6904 19.3096 31.25 20 31.25ZM20 32.5C21.3807 32.5 22.5 31.3807 22.5 30C22.5 28.6193 21.3807 27.5 20 27.5C18.6193 27.5 17.5 28.6193 17.5 30C17.5 31.3807 18.6193 32.5 20 32.5Z" fill="#636363"/>
<path fill-rule="evenodd" clip-rule="evenodd" d="M27.5 31.25C28.1904 31.25 28.75 30.6904 28.75 30C28.75 29.3096 28.1904 28.75 27.5 28.75C26.8096 28.75 26.25 29.3096 26.25 30C26.25 30.6904 26.8096 31.25 27.5 31.25ZM27.5 32.5C28.8807 32.5 30 31.3807 30 30C30 28.6193 28.8807 27.5 27.5 27.5C26.1193 27.5 25 28.6193 25 30C25 31.3807 26.1193 32.5 27.5 32.5Z" fill="#636363"/>
</svg>
