<svg width="40" height="40" viewBox="0 0 40 40" fill="none" xmlns="http://www.w3.org/2000/svg">
<path fill-rule="evenodd" clip-rule="evenodd" d="M27.5 8.125H21.25V6.875H27.5C29.2259 6.875 30.625 8.27411 30.625 10V31.25C30.625 32.9759 29.2259 34.375 27.5 34.375H21.25V33.125H27.5C28.5355 33.125 29.375 32.2855 29.375 31.25V10C29.375 8.96447 28.5355 8.125 27.5 8.125Z" fill="#636363"/>
<path fill-rule="evenodd" clip-rule="evenodd" d="M19.7179 5.67737L9.71794 7.99354C9.15125 8.1248 8.75 8.62961 8.75 9.21131V32.0385C8.75 32.6202 9.15125 33.125 9.71794 33.2563L19.7179 35.5724C20.5015 35.7539 21.25 35.1589 21.25 34.3547V6.89513C21.25 6.09086 20.5015 5.49589 19.7179 5.67737ZM9.43589 6.77578C8.30251 7.03829 7.5 8.04792 7.5 9.21131V32.0385C7.5 33.2019 8.3025 34.2115 9.43589 34.474L19.4359 36.7902C21.0029 37.1532 22.5 35.9632 22.5 34.3547V6.89513C22.5 5.28659 21.0029 4.09665 19.4359 4.45961L9.43589 6.77578Z" fill="#636363"/>
<path d="M18.75 21.25C18.75 21.9404 18.1904 22.5 17.5 22.5C16.8096 22.5 16.25 21.9404 16.25 21.25C16.25 20.5596 16.8096 20 17.5 20C18.1904 20 18.75 20.5596 18.75 21.25Z" fill="#636363"/>
</svg>
