<svg width="30" height="30" viewBox="0 0 30 30" fill="none" xmlns="http://www.w3.org/2000/svg">
<g clip-path="url(#clip0)">
<path d="M14.8125 7.22402C14.8711 7.25332 14.918 7.32363 14.9883 7.32363C15.0527 7.32363 15.1523 7.30019 15.1582 7.23574C15.1699 7.15372 15.0469 7.10099 14.9707 7.06583C14.8711 7.02482 14.7422 7.00725 14.6485 7.05998C14.625 7.07169 14.6016 7.10099 14.6133 7.12442C14.6309 7.20059 14.7481 7.18887 14.8125 7.22402ZM13.5294 7.32363C13.5997 7.32363 13.6466 7.25332 13.7052 7.22402C13.7696 7.18887 13.8868 7.20059 13.9103 7.13028C13.922 7.10685 13.8985 7.07755 13.8751 7.06583C13.7814 7.0131 13.6525 7.03068 13.5529 7.07169C13.4767 7.10685 13.3537 7.15958 13.3654 7.2416C13.3712 7.30019 13.4708 7.32948 13.5294 7.32363ZM26.4834 23.6582C26.2725 23.4238 26.1729 22.9786 26.0616 22.504C25.9561 22.0294 25.8331 21.5197 25.4464 21.1916C25.3702 21.1272 25.2941 21.0686 25.2121 21.0217C25.1359 20.9748 25.0539 20.9338 24.9718 20.9045C25.5109 19.3051 25.2999 17.7114 24.7551 16.2701C24.0871 14.5066 22.9212 12.9657 22.0307 11.9111C21.0288 10.6515 20.0562 9.45626 20.0738 7.69274C20.1031 5.00351 20.3726 0.00587582 15.6328 1.69424e-05C9.63327 -0.0117008 11.1331 6.05811 11.0687 7.92123C10.9691 9.29221 10.6937 10.3702 9.75045 11.7119C8.64312 13.0302 7.08466 15.157 6.34644 17.3775C5.9949 18.4262 5.83085 19.4925 5.98319 20.5003C5.60236 20.8401 5.31527 21.3615 5.01061 21.6838C4.76454 21.9357 4.40714 22.0294 4.0146 22.17C3.62205 22.3107 3.19436 22.5216 2.93071 23.0196C2.80767 23.2481 2.76666 23.4942 2.76666 23.7461C2.76666 23.9746 2.80181 24.2089 2.83696 24.4374C2.90727 24.912 2.98344 25.3573 2.88383 25.6561C2.57917 26.4998 2.53816 27.0857 2.75494 27.5134C2.97758 27.941 3.42285 28.1285 3.93258 28.234C4.94616 28.4449 6.323 28.3922 7.4069 28.9664C8.56695 29.5757 9.74459 29.7925 10.682 29.5757C11.3616 29.4233 11.9182 29.0132 12.1995 28.3922C12.9318 28.3863 13.7404 28.0758 15.0293 28.0055C15.9023 27.9352 16.9979 28.316 18.2576 28.2457C18.2927 28.3805 18.3396 28.5152 18.404 28.6383V28.6441C18.8903 29.6226 19.7984 30.0678 20.7652 29.9917C21.7377 29.9155 22.763 29.3472 23.595 28.357C24.3918 27.3962 25.7042 26.9978 26.5772 26.4705C27.0107 26.2068 27.3623 25.8787 27.3916 25.3983C27.415 24.9179 27.1338 24.3847 26.4834 23.6582ZM14.9824 5.11483C15.5566 3.81415 16.9862 3.83759 17.5603 5.09139C17.9412 5.92335 17.7713 6.90179 17.3084 7.45838C17.2147 7.41151 16.9627 7.30605 16.5702 7.17129C16.6346 7.10099 16.7518 7.0131 16.7987 6.90179C17.0799 6.21044 16.787 5.31989 16.2655 5.30231C15.8378 5.27302 15.4511 5.93507 15.5742 6.64985C15.334 6.53268 15.0234 6.44479 14.8125 6.39206C14.7539 5.9878 14.795 5.53667 14.9824 5.11483ZM12.5979 4.44105C13.1896 4.44105 13.8165 5.27302 13.7169 6.40378C13.5119 6.46237 13.3009 6.55025 13.1193 6.67329C13.1896 6.15185 12.926 5.49565 12.5569 5.52495C12.0647 5.56596 11.9827 6.76703 12.4514 7.17129C12.51 7.21817 12.5627 7.15958 12.1057 7.49353C11.1917 6.63814 11.4905 4.44105 12.5979 4.44105ZM11.8011 7.9974C12.1643 7.72789 12.5979 7.41151 12.6272 7.38222C12.9025 7.12442 13.4181 6.55025 14.2618 6.55025C14.6778 6.55025 15.1758 6.68501 15.7792 7.07169C16.1484 7.31191 16.4413 7.32948 17.1034 7.61657C17.5955 7.82163 17.906 8.18488 17.7185 8.68289C17.5662 9.09887 17.0741 9.52657 16.3886 9.74335C15.7382 9.95427 15.2285 10.6808 14.1505 10.6163C13.922 10.6046 13.7404 10.5577 13.588 10.4933C13.1193 10.2882 12.8732 9.88396 12.4162 9.61445C11.9124 9.33322 11.6429 9.00513 11.555 8.71804C11.473 8.43096 11.555 8.19074 11.8011 7.9974ZM11.9944 27.5661C11.8362 29.6226 9.42235 29.5815 7.58266 28.6207C5.83085 27.695 3.56346 28.2399 3.10061 27.3376C2.96 27.0622 2.96 26.5935 3.25294 25.7908V25.7791C3.39356 25.3338 3.2881 24.8417 3.21779 24.3788C3.14748 23.9219 3.11233 23.5 3.27052 23.2071C3.47558 22.8145 3.76853 22.6739 4.13764 22.545C4.7411 22.3282 4.82898 22.3458 5.28598 21.965C5.60822 21.631 5.84257 21.2092 6.1238 20.9104C6.4226 20.5881 6.70969 20.4358 7.16082 20.5061C7.63539 20.5764 8.04551 20.9045 8.44392 21.4435L9.59226 23.5293C10.1489 24.6952 12.1174 26.365 11.9944 27.5661ZM11.9124 26.0486C11.6722 25.6619 11.3499 25.2518 11.0687 24.9003C11.4847 24.9003 11.9007 24.7714 12.0471 24.3788C12.1819 24.0156 12.0471 23.5059 11.6136 22.92C10.8226 21.8537 9.36962 21.0158 9.36962 21.0158C8.57867 20.5237 8.1334 19.9202 7.92834 19.264C7.72327 18.6078 7.75257 17.8989 7.91076 17.2017C8.21542 15.86 9.00051 14.5535 9.50438 13.7332C9.63913 13.6336 9.55125 13.9207 8.99465 14.9519C8.49665 15.8952 7.56509 18.0747 8.84232 19.7796C8.87748 18.5668 9.16456 17.3306 9.65085 16.1764C10.3539 14.5711 11.8362 11.7881 11.9534 9.57344C12.0178 9.62031 12.2229 9.76092 12.3166 9.81365C12.5862 9.97184 12.7912 10.2062 13.0549 10.4171C13.7814 11.003 14.7246 10.9561 15.539 10.4874C15.9023 10.2824 16.1952 10.048 16.4706 9.96012C17.0506 9.7785 17.5135 9.45626 17.7771 9.08129C18.2283 10.8624 19.2829 13.4344 19.9566 14.6882C20.314 15.3562 21.0288 16.7682 21.3393 18.4731C21.5327 18.4672 21.7495 18.4965 21.9779 18.5551C22.7865 16.4635 21.2925 14.2078 20.6128 13.5809C20.3375 13.3114 20.3257 13.1942 20.4605 13.2001C21.1987 13.8563 22.1713 15.1745 22.5228 16.6568C22.6869 17.3365 22.7162 18.0454 22.5463 18.7485C23.5071 19.1469 24.6496 19.7972 24.3449 20.7873C24.216 20.7815 24.1575 20.7873 24.0989 20.7873C24.2864 20.1956 23.8704 19.7562 22.763 19.2582C21.6147 18.7543 20.6538 18.7543 20.5191 19.9905C19.8102 20.2366 19.4469 20.8518 19.2653 21.59C19.1012 22.2462 19.0544 23.0372 19.0075 23.9277C18.9782 24.3788 18.7966 24.9823 18.6091 25.6268C16.7284 26.9685 14.1153 27.5544 11.9124 26.0486ZM26.9932 25.3749C26.9404 26.3591 24.5793 26.5408 23.2903 28.0992C22.517 29.0191 21.5678 29.5288 20.7359 29.5933C19.9039 29.6577 19.1833 29.312 18.7614 28.4625C18.4861 27.8122 18.6208 27.1091 18.8259 26.3357C19.0426 25.5038 19.3649 24.6484 19.4059 23.957C19.4528 23.0665 19.5055 22.2872 19.652 21.6896C19.8043 21.0862 20.0387 20.6819 20.4546 20.4534C20.4722 20.4417 20.4957 20.4358 20.5132 20.4241C20.5601 21.1975 20.9409 21.9826 21.6147 22.1525C22.3529 22.3458 23.4134 21.7131 23.8645 21.1975C24.3918 21.1799 24.7844 21.1447 25.1886 21.4963C25.7687 21.9943 25.6046 23.2715 26.1905 23.9336C26.8115 24.6132 27.0107 25.0761 26.9932 25.3749ZM12.0296 8.71218C12.1467 8.8235 12.3049 8.97583 12.4983 9.12816C12.885 9.43283 13.424 9.74921 14.0977 9.74921C14.7774 9.74921 15.416 9.40353 15.9609 9.11645C16.248 8.96412 16.5995 8.70632 16.828 8.50712C17.0565 8.30792 17.1737 8.13801 17.0096 8.12043C16.8456 8.10286 16.8573 8.27277 16.6581 8.41924C16.4003 8.60672 16.0898 8.85279 15.8437 8.99341C15.4101 9.23948 14.7012 9.59101 14.0919 9.59101C13.4826 9.59101 12.9963 9.30979 12.633 9.0227C12.4514 8.87623 12.2991 8.72976 12.1819 8.61844C12.094 8.53642 12.0706 8.34893 11.93 8.33135C11.8479 8.3255 11.8245 8.54813 12.0296 8.71218Z" fill="white"/>
</g>
<defs>
<clipPath id="clip0">
<rect width="30" height="30" fill="white"/>
</clipPath>
</defs>
</svg>
