<svg width="40" height="40" viewBox="0 0 40 40" fill="none" xmlns="http://www.w3.org/2000/svg">
<path fill-rule="evenodd" clip-rule="evenodd" d="M31.25 11.25H10C7.92893 11.25 6.25 12.9289 6.25 15V33.75C6.25 35.8211 7.92893 37.5 10 37.5H31.25C33.3211 37.5 35 35.8211 35 33.75V15C35 12.9289 33.3211 11.25 31.25 11.25ZM10 10C7.23858 10 5 12.2386 5 15V33.75C5 36.5114 7.23858 38.75 10 38.75H31.25C34.0114 38.75 36.25 36.5114 36.25 33.75V15C36.25 12.2386 34.0114 10 31.25 10H10Z" fill="#636363"/>
<path fill-rule="evenodd" clip-rule="evenodd" d="M14.1027 1.95362L10.2837 6.25001L17.4443 6.25001L14.1027 1.95362ZM9.34943 5.41955L13.1684 1.12317C13.6877 0.539039 14.6096 0.569287 15.0894 1.18619L18.431 5.48258C19.0696 6.30365 18.4845 7.50001 17.4443 7.50001H10.2837C9.20513 7.50001 8.63288 6.22568 9.34943 5.41955Z" fill="#636363"/>
<path fill-rule="evenodd" clip-rule="evenodd" d="M27.1473 5.54638L30.9663 1.24999L23.8057 1.24999L27.1473 5.54638ZM26.1606 6.31381L22.819 2.01742C22.1804 1.19635 22.7655 -7.26144e-06 23.8057 -7.14452e-06L30.9663 -6.33966e-06C32.0449 -6.21843e-06 32.6171 1.27432 31.9006 2.08045L28.0816 6.37683C27.5623 6.96096 26.6404 6.93071 26.1606 6.31381Z" fill="#636363"/>
<path fill-rule="evenodd" clip-rule="evenodd" d="M13.75 20C15.1307 20 16.25 18.8807 16.25 17.5C16.25 16.1193 15.1307 15 13.75 15C12.3693 15 11.25 16.1193 11.25 17.5C11.25 18.8807 12.3693 20 13.75 20ZM13.75 21.25C15.8211 21.25 17.5 19.5711 17.5 17.5C17.5 15.4289 15.8211 13.75 13.75 13.75C11.6789 13.75 10 15.4289 10 17.5C10 19.5711 11.6789 21.25 13.75 21.25Z" fill="#636363"/>
<path fill-rule="evenodd" clip-rule="evenodd" d="M15 21.25H12.5C11.8096 21.25 11.25 21.8096 11.25 22.5V27.5C11.25 28.1904 11.8096 28.75 12.5 28.75H15C15.6904 28.75 16.25 28.1904 16.25 27.5V22.5C16.25 21.8096 15.6904 21.25 15 21.25ZM12.5 20C11.1193 20 10 21.1193 10 22.5V27.5C10 28.8807 11.1193 30 12.5 30H15C16.3807 30 17.5 28.8807 17.5 27.5V22.5C17.5 21.1193 16.3807 20 15 20H12.5Z" fill="#636363"/>
<path fill-rule="evenodd" clip-rule="evenodd" d="M15 33.75H12.5V30H15V33.75ZM12.5 35C11.8096 35 11.25 34.4404 11.25 33.75V30C11.25 29.3096 11.8096 28.75 12.5 28.75H15C15.6904 28.75 16.25 29.3096 16.25 30V33.75C16.25 34.4404 15.6904 35 15 35H12.5Z" fill="#636363"/>
<path fill-rule="evenodd" clip-rule="evenodd" d="M27.5 20C28.8807 20 30 18.8807 30 17.5C30 16.1193 28.8807 15 27.5 15C26.1193 15 25 16.1193 25 17.5C25 18.8807 26.1193 20 27.5 20ZM27.5 21.25C29.5711 21.25 31.25 19.5711 31.25 17.5C31.25 15.4289 29.5711 13.75 27.5 13.75C25.4289 13.75 23.75 15.4289 23.75 17.5C23.75 19.5711 25.4289 21.25 27.5 21.25Z" fill="#636363"/>
<path fill-rule="evenodd" clip-rule="evenodd" d="M28.2219 21.25H26.3252C25.7841 21.25 25.3045 21.5981 25.1368 22.1125L23.5063 27.1125C23.2429 27.9204 23.845 28.75 24.6947 28.75H30.1241C30.9993 28.75 31.6036 27.8736 31.2924 27.0555L29.3902 22.0555C29.2057 21.5706 28.7408 21.25 28.2219 21.25ZM26.3252 20C25.2431 20 24.2838 20.6962 23.9483 21.7249L22.3179 26.7249C21.791 28.3407 22.9952 30 24.6947 30H30.1241C31.8746 30 33.0831 28.2472 32.4607 26.6111L30.5585 21.6111C30.1895 20.6411 29.2597 20 28.2219 20H26.3252Z" fill="#636363"/>
<path fill-rule="evenodd" clip-rule="evenodd" d="M28.75 33.75H26.25V30H28.75V33.75ZM26.25 35C25.5596 35 25 34.4404 25 33.75V30C25 29.3096 25.5596 28.75 26.25 28.75H28.75C29.4404 28.75 30 29.3096 30 30V33.75C30 34.4404 29.4404 35 28.75 35H26.25Z" fill="#636363"/>
</svg>
