<svg width="16" height="17" viewBox="0 0 16 17" fill="none" xmlns="http://www.w3.org/2000/svg">
<path d="M15.36 0.5H0.64C0.286 0.5 0 0.786 0 1.14V15.86C0 16.214 0.286 16.5 0.64 16.5H15.36C15.714 16.5 16 16.214 16 15.86V1.14C16 0.786 15.714 0.5 15.36 0.5ZM4.746 14.134H2.372V6.498H4.746V14.134ZM3.56 5.454C3.28785 5.454 3.02182 5.3733 2.79554 5.2221C2.56925 5.07091 2.39289 4.856 2.28874 4.60457C2.1846 4.35314 2.15735 4.07647 2.21044 3.80956C2.26353 3.54264 2.39458 3.29746 2.58702 3.10502C2.77946 2.91258 3.02464 2.78153 3.29156 2.72844C3.55847 2.67535 3.83514 2.7026 4.08657 2.80674C4.338 2.91089 4.55291 3.08725 4.7041 3.31354C4.8553 3.53982 4.936 3.80585 4.936 4.078C4.934 4.838 4.318 5.454 3.56 5.454ZM13.634 14.134H11.262V10.42C11.262 9.534 11.246 8.396 10.028 8.396C8.794 8.396 8.604 9.36 8.604 10.356V14.134H6.234V6.498H8.51V7.542H8.542C8.858 6.942 9.632 6.308 10.788 6.308C13.192 6.308 13.634 7.89 13.634 9.946V14.134Z" fill="white"/>
</svg>
