<svg width="105" height="100" viewBox="0 0 105 100" fill="none" xmlns="http://www.w3.org/2000/svg">
<path d="M92.5336 67.2222C92.5336 67.8434 92.3444 68.7134 91.9641 69.7958C91.5896 70.8615 91.0553 72.0635 90.4238 73.3252C89.1612 75.848 87.5433 78.5439 86.1367 80.7578C85.0499 82.4684 82.6507 82.4684 81.5639 80.7578C80.1573 78.5439 78.5394 75.848 77.2768 73.3252C76.6453 72.0635 76.111 70.8615 75.7365 69.7958C75.3562 68.7134 75.167 67.8434 75.167 67.2222C75.167 62.7266 79.0081 59 83.8503 59C88.6925 59 92.5336 62.7266 92.5336 67.2222Z" stroke="#287CAB" stroke-width="2"/>
<path d="M87.0004 67.2224C87.0004 68.8075 85.6366 70.1748 83.8504 70.1748C82.0642 70.1748 80.7004 68.8075 80.7004 67.2224C80.7004 65.6373 82.0642 64.27 83.8504 64.27C85.6366 64.27 87.0004 65.6373 87.0004 67.2224Z" stroke="#287CAB" stroke-width="2"/>
<path d="M38.2717 47C41.2893 47 49.4065 47 57.7349 47C68.1455 47 71.0061 63.6939 55.1639 63.6939C39.3217 63.6939 47.0997 63.6939 37.5944 63.6939C19.5474 63.6939 20.2131 83 37.5944 83C54.9755 83 68.2317 83 71.4001 83" stroke="#49C2E0" stroke-width="2" stroke-linecap="round" stroke-linejoin="round"/>
<path d="M39.5021 23.8353C39.5021 24.9857 39.1113 26.5767 38.3913 28.4885C37.6794 30.3786 36.6795 32.4966 35.5364 34.6716C33.2506 39.0203 30.4289 43.5276 28.2994 46.7775C27.1821 48.4827 24.768 48.4827 23.6507 46.7775C21.5212 43.5276 18.6995 39.0203 16.4138 34.6716C15.2706 32.4966 14.2707 30.3786 13.5589 28.4885C12.8389 26.5767 12.448 24.9857 12.448 23.8353C12.448 16.792 18.4577 11 25.9751 11C33.4924 11 39.5021 16.792 39.5021 23.8353Z" stroke="#287CAB" stroke-width="2"/>
<path d="M31.2008 23.8352C31.2008 26.5122 28.9076 28.7646 25.9749 28.7646C23.0422 28.7646 20.749 26.5122 20.749 23.8352C20.749 21.1582 23.0422 18.9058 25.9749 18.9058C28.9076 18.9058 31.2008 21.1582 31.2008 23.8352Z" stroke="#287CAB" stroke-width="2"/>
</svg>
