<svg width="180" height="143" viewBox="0 0 180 143" fill="none" xmlns="http://www.w3.org/2000/svg">
<rect x="1.39598" y="1.39549" width="177.209" height="114.017" rx="4.18647" stroke="#E2F0F7" stroke-width="2.79098"/>
<rect x="1.39549" y="-1.39549" width="135.719" height="9.97495" rx="4.18647" transform="matrix(1 0 0 -1 21.0642 139.549)" stroke="#E2F0F7" stroke-width="2.79098"/>
<rect x="12.2471" y="12.8847" width="155.507" height="91.0386" rx="2.79098" stroke="#49C2E0" stroke-width="2.79098"/>
<path d="M119.362 130.851L113.958 115.532H66.7629L60.6384 130.851H119.362Z" stroke="#E2F0F7" stroke-width="2.79098"/>
<path d="M106 52.6075C106 49.0664 106 35.0404 106 32.1699C97.5696 42.6289 86.7278 36.5278 82.3608 32.1699C73.019 41.492 64.2278 36.0541 61 32.1699C61 40.5068 61 53.8268 61 60.8752C61 67.9236 75.2405 82.6647 82.3608 86.1699C85.0035 84.899 88.5327 82.7862 92.0563 80.1532" stroke="#E2F0F7" stroke-width="2.79098" stroke-linecap="round" stroke-linejoin="round"/>
<path d="M122.143 63.8921V67.781C124.264 67.781 126 69.531 126 71.6699V85.281C126 87.4199 124.264 89.1699 122.143 89.1699H102.857C100.736 89.1699 99 87.4199 99 85.281V71.6699C99 69.531 100.736 67.781 102.857 67.781V63.8921C102.857 58.5255 107.177 54.1699 112.5 54.1699C117.823 54.1699 122.143 58.5255 122.143 63.8921ZM108.643 63.8921V67.781H116.357V63.8921C116.357 61.7533 114.621 60.0033 112.5 60.0033C110.379 60.0033 108.643 61.7533 108.643 63.8921ZM114.043 83.8227V79.6033C115.393 79.0005 116.357 77.6394 116.357 76.0449C116.357 73.906 114.621 72.156 112.5 72.156C110.379 72.156 108.643 73.906 108.643 76.0449C108.643 77.6394 109.607 79.0005 110.957 79.6033V83.8227H114.043Z" fill="white"/>
</svg>
