<svg width="370" height="229" viewBox="0 0 370 229" fill="none" xmlns="http://www.w3.org/2000/svg">
<path d="M190.373 57.9639H212.216" stroke="#49C2E0" stroke-width="2" stroke-linecap="round" stroke-linejoin="round"/>
<path d="M148.767 175.847L200.775 175.847" stroke="#49C2E0" stroke-width="2" stroke-linecap="round" stroke-linejoin="round"/>
<path d="M123.803 133.548L123.803 149.497" stroke="#49C2E0" stroke-width="2" stroke-linecap="round" stroke-linejoin="round"/>
<path d="M256.942 75.9927L256.942 101.65" stroke="#49C2E0" stroke-width="2" stroke-linecap="round" stroke-linejoin="round"/>
<path d="M119.842 39.9341H114.095C112.563 39.9341 111.322 41.1759 111.322 42.7078V123.146C111.322 124.678 112.563 125.92 114.095 125.92H175.811C177.343 125.92 178.584 124.678 178.584 123.146V118.15" stroke="#49C2E0" stroke-width="2.77373"/>
<path fill-rule="evenodd" clip-rule="evenodd" d="M119.076 158.37C119.631 158.37 120.081 158.819 120.081 159.374V165.403C120.081 165.958 119.631 166.408 119.076 166.408C118.521 166.408 118.072 165.958 118.072 165.403V159.374C118.072 158.819 118.521 158.37 119.076 158.37Z" fill="#49C2E0"/>
<path fill-rule="evenodd" clip-rule="evenodd" d="M103 180.407C103 179.852 103.45 179.402 104.005 179.402L112.355 179.402C112.91 179.402 113.36 179.852 113.36 180.407C113.36 180.962 112.91 181.412 112.355 181.412L104.005 181.412C103.45 181.412 103 180.962 103 180.407Z" fill="#49C2E0"/>
<path fill-rule="evenodd" clip-rule="evenodd" d="M142.111 172.436C142.111 172.991 141.661 173.441 141.107 173.441H134.148C133.593 173.441 133.143 172.991 133.143 172.436C133.143 171.881 133.593 171.432 134.148 171.432H141.107C141.661 171.432 142.111 171.881 142.111 172.436Z" fill="#49C2E0"/>
<path fill-rule="evenodd" clip-rule="evenodd" d="M127.427 193.075C126.872 193.075 126.422 192.625 126.422 192.07L126.422 186.503C126.422 185.948 126.872 185.498 127.427 185.498C127.982 185.498 128.432 185.948 128.432 186.503L128.432 192.07C128.432 192.625 127.982 193.075 127.427 193.075Z" fill="#49C2E0"/>
<path fill-rule="evenodd" clip-rule="evenodd" d="M128.119 154.351C128.673 154.351 129.123 154.8 129.123 155.355L129.123 165.403C129.123 165.958 128.673 166.408 128.119 166.408C127.564 166.408 127.114 165.958 127.114 165.403L127.114 155.355C127.114 154.8 127.564 154.351 128.119 154.351Z" fill="#49C2E0"/>
<path fill-rule="evenodd" clip-rule="evenodd" d="M105.783 172.056C105.783 171.501 106.233 171.051 106.788 171.051L112.355 171.051C112.91 171.051 113.36 171.501 113.36 172.056C113.36 172.611 112.91 173.061 112.355 173.061L106.788 173.061C106.233 173.061 105.783 172.611 105.783 172.056Z" fill="#49C2E0"/>
<path fill-rule="evenodd" clip-rule="evenodd" d="M140.72 180.787C140.72 181.342 140.27 181.792 139.715 181.792H134.148C133.593 181.792 133.143 181.342 133.143 180.787C133.143 180.232 133.593 179.782 134.148 179.782H139.715C140.27 179.782 140.72 180.232 140.72 180.787Z" fill="#49C2E0"/>
<path fill-rule="evenodd" clip-rule="evenodd" d="M119.076 195.858C118.521 195.858 118.072 195.409 118.072 194.854L118.072 186.503C118.072 185.948 118.521 185.498 119.076 185.498C119.631 185.498 120.081 185.948 120.081 186.503L120.081 194.854C120.081 195.409 119.631 195.858 119.076 195.858Z" fill="#49C2E0"/>
<path fill-rule="evenodd" clip-rule="evenodd" d="M132.614 167.107H114.365L114.365 185.356H132.614V167.107ZM114.365 165.098C113.255 165.098 112.355 165.997 112.355 167.107V185.356C112.355 186.466 113.255 187.366 114.365 187.366H132.614C133.724 187.366 134.623 186.466 134.623 185.356V167.107C134.623 165.997 133.724 165.098 132.614 165.098H114.365Z" fill="#49C2E0"/>
<path fill-rule="evenodd" clip-rule="evenodd" d="M132.614 167.107H114.365L114.365 185.356H132.614V167.107ZM114.365 165.098C113.255 165.098 112.355 165.997 112.355 167.107V185.356C112.355 186.466 113.255 187.366 114.365 187.366H132.614C133.724 187.366 134.623 186.466 134.623 185.356V167.107C134.623 165.997 133.724 165.098 132.614 165.098H114.365Z" fill="#49C2E0"/>
<path fill-rule="evenodd" clip-rule="evenodd" d="M121.324 174.066V178.397H125.655V174.066H121.324ZM120.319 172.056C119.764 172.056 119.314 172.506 119.314 173.061V179.402C119.314 179.957 119.764 180.407 120.319 180.407H126.66C127.215 180.407 127.665 179.957 127.665 179.402V173.061C127.665 172.506 127.215 172.056 126.66 172.056H120.319Z" fill="#E2F0F7"/>
<path fill-rule="evenodd" clip-rule="evenodd" d="M237.576 37.3467C238.176 37.3467 238.663 37.8332 238.663 38.4333V44.9532C238.663 45.5533 238.176 46.0398 237.576 46.0398C236.976 46.0398 236.49 45.5533 236.49 44.9532V38.4333C236.49 37.8332 236.976 37.3467 237.576 37.3467Z" fill="#49C2E0"/>
<path fill-rule="evenodd" clip-rule="evenodd" d="M220.19 61.179C220.19 60.5788 220.676 60.0923 221.277 60.0923L230.307 60.0923C230.908 60.0923 231.394 60.5788 231.394 61.179C231.394 61.7791 230.908 62.2656 230.307 62.2656L221.277 62.2656C220.676 62.2656 220.19 61.7791 220.19 61.179Z" fill="#49C2E0"/>
<path fill-rule="evenodd" clip-rule="evenodd" d="M262.488 52.5593C262.488 53.1594 262.002 53.6459 261.401 53.6459H253.876C253.276 53.6459 252.789 53.1594 252.789 52.5593C252.789 51.9592 253.276 51.4727 253.876 51.4727H261.401C262.002 51.4727 262.488 51.9592 262.488 52.5593Z" fill="#49C2E0"/>
<path fill-rule="evenodd" clip-rule="evenodd" d="M246.607 74.8799C246.007 74.8799 245.521 74.3934 245.521 73.7932L245.521 67.7727C245.521 67.1725 246.007 66.686 246.607 66.686C247.208 66.686 247.694 67.1725 247.694 67.7727L247.694 73.7932C247.694 74.3934 247.208 74.8799 246.607 74.8799Z" fill="#49C2E0"/>
<path fill-rule="evenodd" clip-rule="evenodd" d="M247.356 33C247.956 33 248.442 33.4865 248.442 34.0866L248.442 44.953C248.442 45.5532 247.956 46.0397 247.356 46.0397C246.756 46.0397 246.269 45.5532 246.269 44.953L246.269 34.0866C246.269 33.4865 246.756 33 247.356 33Z" fill="#49C2E0"/>
<path fill-rule="evenodd" clip-rule="evenodd" d="M223.2 52.1482C223.2 51.5481 223.687 51.0616 224.287 51.0616L230.307 51.0616C230.908 51.0616 231.394 51.5481 231.394 52.1482C231.394 52.7484 230.908 53.2349 230.307 53.2349L224.287 53.2349C223.687 53.2349 223.2 52.7484 223.2 52.1482Z" fill="#49C2E0"/>
<path fill-rule="evenodd" clip-rule="evenodd" d="M260.983 61.5905C260.983 62.1907 260.497 62.6772 259.897 62.6772H253.876C253.276 62.6772 252.79 62.1907 252.79 61.5905C252.79 60.9904 253.276 60.5039 253.876 60.5039H259.897C260.497 60.5039 260.983 60.9904 260.983 61.5905Z" fill="#49C2E0"/>
<path fill-rule="evenodd" clip-rule="evenodd" d="M237.576 77.8901C236.976 77.8901 236.489 77.4036 236.489 76.8035L236.489 67.7726C236.489 67.1725 236.976 66.686 237.576 66.686C238.176 66.686 238.663 67.1725 238.663 67.7726L238.663 76.8035C238.663 77.4036 238.176 77.8901 237.576 77.8901Z" fill="#49C2E0"/>
<path fill-rule="evenodd" clip-rule="evenodd" d="M252.217 46.7958H232.481L232.481 66.5316H252.217V46.7958ZM232.481 44.6226C231.281 44.6226 230.308 45.5956 230.308 46.7958V66.5316C230.308 67.7319 231.281 68.7049 232.481 68.7049H252.217C253.417 68.7049 254.39 67.7319 254.39 66.5316V46.7958C254.39 45.5956 253.417 44.6226 252.217 44.6226H232.481Z" fill="#49C2E0"/>
<path fill-rule="evenodd" clip-rule="evenodd" d="M252.217 46.7958H232.481L232.481 66.5316H252.217V46.7958ZM232.481 44.6226C231.281 44.6226 230.308 45.5956 230.308 46.7958V66.5316C230.308 67.7319 231.281 68.7049 232.481 68.7049H252.217C253.417 68.7049 254.39 67.7319 254.39 66.5316V46.7958C254.39 45.5956 253.417 44.6226 252.217 44.6226H232.481Z" fill="#49C2E0"/>
<path fill-rule="evenodd" clip-rule="evenodd" d="M240.007 54.3217V59.006H244.691V54.3217H240.007ZM238.92 52.1484C238.32 52.1484 237.833 52.6349 237.833 53.2351V60.0927C237.833 60.6928 238.32 61.1793 238.92 61.1793H245.777C246.378 61.1793 246.864 60.6928 246.864 60.0927V53.2351C246.864 52.6349 246.378 52.1484 245.777 52.1484H238.92Z" fill="#E2F0F7"/>
<path fill-rule="evenodd" clip-rule="evenodd" d="M242.976 120.876C243.645 120.876 244.187 121.487 244.187 122.24V126.776C244.187 127.53 243.645 128.141 242.976 128.141C242.308 128.141 241.766 127.53 241.766 126.776V122.24C241.766 121.487 242.308 120.876 242.976 120.876Z" fill="#E2F0F7"/>
<path fill-rule="evenodd" clip-rule="evenodd" d="M230.05 120.585C230.749 120.585 231.315 121.223 231.315 122.01V126.749C231.315 127.536 230.749 128.174 230.05 128.174C229.351 128.174 228.785 127.536 228.785 126.749V122.01C228.785 121.223 229.351 120.585 230.05 120.585Z" fill="#E2F0F7"/>
<path fill-rule="evenodd" clip-rule="evenodd" d="M259.412 136.939V130.886C259.412 120.855 251.228 112.724 241.133 112.724C231.038 112.724 222.855 120.855 222.855 130.886V136.939C222.855 138.425 224.067 139.63 225.563 139.63H256.704C258.199 139.63 259.412 138.425 259.412 136.939ZM241.133 110.034C229.543 110.034 220.147 119.369 220.147 130.886V136.939C220.147 139.911 222.571 142.321 225.563 142.321H256.704C259.695 142.321 262.12 139.911 262.12 136.939V130.886C262.12 119.369 252.724 110.034 241.133 110.034Z" fill="#E2F0F7"/>
<path fill-rule="evenodd" clip-rule="evenodd" d="M258.659 184.878H222.8V153.258C222.8 151.798 223.988 150.614 225.454 150.614H256.005C257.471 150.614 258.659 151.798 258.659 153.258V184.878ZM220.147 187.522V153.258C220.147 150.338 222.523 147.971 225.454 147.971H256.005C258.936 147.971 261.313 150.338 261.313 153.258V187.522H220.147Z" fill="#E2F0F7"/>
<path fill-rule="evenodd" clip-rule="evenodd" d="M247.36 147.769H234.099V142.522H247.36V147.769ZM231.447 150.392V139.899H250.012V150.392H231.447Z" fill="#E2F0F7"/>
<path fill-rule="evenodd" clip-rule="evenodd" d="M239.795 103.254C241.336 103.666 242.919 102.752 243.331 101.212C243.744 99.6721 242.83 98.089 241.29 97.6764C239.75 97.2637 238.167 98.1777 237.754 99.7178C237.341 101.258 238.255 102.841 239.795 103.254ZM239.181 105.546C241.987 106.298 244.872 104.633 245.624 101.827C246.376 99.0201 244.711 96.1355 241.904 95.3835C239.098 94.6316 236.213 96.297 235.461 99.1034C234.709 101.91 236.375 104.794 239.181 105.546Z" fill="#E2F0F7"/>
<path fill-rule="evenodd" clip-rule="evenodd" d="M239.519 111.648L239.519 104.383L241.941 104.383L241.941 111.648L239.519 111.648Z" fill="#E2F0F7"/>
<path fill-rule="evenodd" clip-rule="evenodd" d="M254.855 158.296C256.991 158.296 258.723 156.564 258.723 154.428C258.723 152.292 256.991 150.561 254.855 150.561C252.719 150.561 250.988 152.292 250.988 154.428C250.988 156.564 252.719 158.296 254.855 158.296ZM254.855 160.885C258.422 160.885 261.313 157.994 261.313 154.428C261.313 150.862 258.422 147.971 254.855 147.971C251.289 147.971 248.398 150.862 248.398 154.428C248.398 157.994 251.289 160.885 254.855 160.885Z" fill="#E2F0F7"/>
<path fill-rule="evenodd" clip-rule="evenodd" d="M250.95 156.781C251.685 156.793 252.261 157.409 252.236 158.157C252.22 158.655 252.228 159.103 252.236 159.576C252.242 159.877 252.248 160.188 252.247 160.529C252.247 161.339 252.207 162.227 251.977 163.104C251.739 164.008 251.303 164.883 250.542 165.673C249.795 166.451 248.787 167.09 247.48 167.618C245.387 168.463 243.632 168.337 242.377 167.958C241.758 167.772 241.272 167.528 240.932 167.324C240.762 167.222 240.627 167.129 240.529 167.057C240.48 167.021 240.44 166.99 240.41 166.965C240.394 166.953 240.381 166.942 240.371 166.933L240.357 166.921L240.351 166.916L240.348 166.914L240.347 166.913C240.346 166.913 240.346 166.912 241.222 165.877L240.346 166.912C239.792 166.43 239.735 165.576 240.219 165.005C240.7 164.437 241.533 164.361 242.087 164.832C242.091 164.835 242.102 164.844 242.12 164.857C242.157 164.885 242.223 164.931 242.316 164.987C242.503 165.099 242.794 165.247 243.175 165.361C243.919 165.585 245.056 165.701 246.534 165.104C247.595 164.675 248.244 164.223 248.654 163.798C249.05 163.385 249.272 162.946 249.404 162.448C249.542 161.922 249.582 161.32 249.583 160.574C249.583 160.34 249.579 160.074 249.574 159.791C249.565 159.258 249.555 158.665 249.573 158.113C249.598 157.365 250.214 156.769 250.95 156.781ZM260.338 155.852C261.074 155.825 261.68 156.41 261.693 157.157C261.696 157.302 261.699 157.453 261.702 157.608C261.746 159.767 261.809 162.858 260.72 165.895C259.517 169.25 256.959 172.434 251.85 174.497C248.383 175.898 244.958 176.341 242.011 176.117C239.095 175.896 236.532 175.01 234.883 173.621C234.322 173.148 234.252 172.295 234.727 171.716C235.203 171.137 236.043 171.051 236.605 171.524C237.704 172.45 239.681 173.222 242.256 173.417C244.801 173.61 247.819 173.23 250.904 171.984C255.317 170.201 257.29 167.595 258.218 165.007C259.128 162.47 259.079 159.853 259.037 157.642C259.034 157.511 259.032 157.381 259.029 157.252C259.017 156.505 259.602 155.878 260.338 155.852Z" fill="#E2F0F7"/>
<path fill-rule="evenodd" clip-rule="evenodd" d="M209.92 157.791C210.327 157.731 210.634 157.867 210.731 157.913C211.152 158.111 211.416 158.502 211.47 158.932C211.479 158.944 211.488 158.955 211.497 158.968C211.769 159.312 212.284 159.828 213.048 160.304C214.542 161.235 217.009 162.031 220.559 161.019C221.278 160.814 222.013 161.225 222.201 161.937C222.39 162.649 221.96 163.392 221.241 163.597C216.906 164.832 213.665 163.886 211.585 162.589C210.562 161.951 209.823 161.233 209.37 160.658C209.156 160.388 208.955 160.085 208.838 159.796C208.807 159.718 208.767 159.605 208.741 159.471C208.722 159.371 208.675 159.088 208.784 158.752C208.846 158.563 208.967 158.33 209.193 158.13C209.424 157.926 209.687 157.826 209.92 157.791ZM209.54 160.345C209.553 160.352 209.567 160.358 209.58 160.364C209.562 160.356 209.548 160.349 209.54 160.345ZM202.472 161.7C203.161 161.407 203.944 161.721 204.221 162.402C204.949 164.19 206.751 166.78 209.524 168.555C212.249 170.3 215.916 171.265 220.521 169.89C221.237 169.676 221.977 170.078 222.175 170.787C222.372 171.496 221.952 172.245 221.236 172.458C215.805 174.08 211.341 172.94 208.033 170.823C204.774 168.736 202.641 165.707 201.726 163.462C201.449 162.781 201.783 161.992 202.472 161.7Z" fill="#E2F0F7"/>
<path fill-rule="evenodd" clip-rule="evenodd" d="M233.372 159.95L235.745 166.108C235.942 166.617 235.805 167.202 235.4 167.585C234.995 167.967 234.404 168.068 233.909 167.841L228.525 165.372C228.521 165.478 228.519 165.584 228.521 165.692C228.565 168.803 231.048 171.172 233.994 171.059C236.94 170.947 239.352 168.391 239.307 165.28C239.262 162.169 236.78 159.8 233.834 159.913C233.678 159.919 233.524 159.931 233.372 159.95ZM231.099 157.804C231.941 157.465 232.849 157.263 233.795 157.227C238.288 157.055 241.926 160.649 241.991 165.177C242.056 169.706 238.526 173.573 234.033 173.745C229.539 173.916 225.902 170.323 225.837 165.794C225.823 164.836 225.97 163.906 226.254 163.034C226.374 162.664 226.647 162.359 227.003 162.199C227.359 162.039 227.763 162.039 228.111 162.199L232.032 163.997L230.321 159.559C230.194 159.228 230.204 158.858 230.35 158.529C230.496 158.199 230.766 157.939 231.099 157.804Z" fill="#E2F0F7"/>
<path fill-rule="evenodd" clip-rule="evenodd" d="M205.15 148.426L204.718 155.978C204.687 156.523 204.321 157 203.795 157.181C203.268 157.363 202.688 157.212 202.33 156.8L197.84 151.637C197.744 151.811 197.656 151.992 197.575 152.178C196.156 155.438 197.622 159.081 200.753 160.357C203.884 161.632 207.604 160.1 209.023 156.84C210.442 153.58 208.975 149.937 205.844 148.662C205.615 148.568 205.383 148.49 205.15 148.426ZM203.962 145.557C204.957 145.598 205.955 145.807 206.916 146.199C211.481 148.058 213.495 153.294 211.51 157.853C209.526 162.413 204.247 164.679 199.681 162.819C195.116 160.96 193.103 155.724 195.087 151.165C195.507 150.2 196.075 149.336 196.753 148.593C197.016 148.305 197.39 148.141 197.781 148.142C198.171 148.143 198.539 148.309 198.79 148.598L202.205 152.525L202.53 146.834C202.55 146.481 202.712 146.148 202.981 145.908C203.25 145.668 203.603 145.542 203.962 145.557Z" fill="#E2F0F7"/>
<rect x="119.642" y="34.3869" width="63.7958" height="83.2119" rx="1.38687" stroke="white" stroke-width="2.77373"/>
<rect x="145.3" y="80.8468" width="38.1388" height="26.3504" rx="1.38687" fill="white" stroke="white" stroke-width="2.77373"/>
<path d="M120.683 47.9087H182.745" stroke="white" stroke-width="2.77373"/>
<path d="M126.577 56.5767H176.504" stroke="#49C2E0" stroke-width="2.77373" stroke-linecap="round" stroke-linejoin="round"/>
<path d="M127.964 42.0146L126.577 42.0146" stroke="#49C2E0" stroke-width="2.77373" stroke-linecap="round" stroke-linejoin="round"/>
<path d="M135.592 42.0146L134.205 42.0146" stroke="#49C2E0" stroke-width="2.77373" stroke-linecap="round" stroke-linejoin="round"/>
<path d="M143.219 42.0146L141.832 42.0146" stroke="#49C2E0" stroke-width="2.77373" stroke-linecap="round" stroke-linejoin="round"/>
<path d="M126.577 64.2046H176.504" stroke="#49C2E0" stroke-width="2.77373" stroke-linecap="round" stroke-linejoin="round"/>
<path d="M126.577 71.832H159.168" stroke="#49C2E0" stroke-width="2.77373" stroke-linecap="round" stroke-linejoin="round"/>
<path d="M157.505 86.0711H160.756V96.9927C160.756 97.9967 160.532 98.8851 160.084 99.658C159.643 100.424 159.018 101.016 158.209 101.435C157.4 101.854 156.487 102.063 155.468 102.063C153.8 102.063 152.499 101.641 151.568 100.796C150.636 99.9434 150.17 98.7407 150.17 97.1877H153.442C153.442 97.9606 153.604 98.5312 153.93 98.8996C154.255 99.268 154.767 99.4522 155.468 99.4522C156.089 99.4522 156.584 99.2391 156.952 98.8129C157.321 98.3867 157.505 97.78 157.505 96.9927V86.0711ZM172.164 97.7078C172.164 97.0938 171.948 96.6243 171.514 96.2992C171.081 95.9669 170.301 95.6202 169.174 95.2591C168.047 94.8907 167.155 94.5295 166.498 94.1756C164.706 93.2077 163.811 91.9039 163.811 90.2642C163.811 89.4118 164.049 88.6534 164.526 87.9889C165.01 87.3171 165.699 86.7934 166.595 86.4178C167.498 86.0422 168.509 85.8544 169.629 85.8544C170.756 85.8544 171.76 86.0603 172.641 86.472C173.522 86.8765 174.205 87.4507 174.689 88.1947C175.18 88.9387 175.426 89.7838 175.426 90.7301H172.175C172.175 90.0078 171.948 89.448 171.492 89.0507C171.037 88.6462 170.398 88.4439 169.575 88.4439C168.78 88.4439 168.163 88.6137 167.722 88.9532C167.281 89.2854 167.061 89.7261 167.061 90.275C167.061 90.7879 167.317 91.2177 167.83 91.5644C168.35 91.9111 169.112 92.2361 170.116 92.5395C171.966 93.0957 173.313 93.7855 174.158 94.609C175.003 95.4324 175.426 96.4581 175.426 97.6861C175.426 99.0513 174.909 100.124 173.876 100.904C172.843 101.677 171.453 102.063 169.705 102.063C168.491 102.063 167.386 101.843 166.389 101.402C165.392 100.955 164.63 100.344 164.103 99.5714C163.583 98.7985 163.323 97.9028 163.323 96.8843H166.584C166.584 98.6251 167.624 99.4955 169.705 99.4955C170.478 99.4955 171.081 99.3402 171.514 99.0296C171.948 98.7118 172.164 98.2712 172.164 97.7078Z" fill="url(#paint0_linear)"/>
<path d="M157.505 86.0711V85.5711H157.005V86.0711H157.505ZM160.756 86.0711H161.256V85.5711H160.756V86.0711ZM160.084 99.658L159.651 99.4074L159.65 99.4086L160.084 99.658ZM151.568 100.796L151.23 101.165L151.232 101.166L151.568 100.796ZM150.17 97.1877V96.6877H149.67V97.1877H150.17ZM153.442 97.1877H153.942V96.6877H153.442V97.1877ZM157.505 86.5711H160.756V85.5711H157.505V86.5711ZM160.256 86.0711V96.9927H161.256V86.0711H160.256ZM160.256 96.9927C160.256 97.9198 160.05 98.7197 159.651 99.4074L160.516 99.9087C161.014 99.0506 161.256 98.0736 161.256 96.9927H160.256ZM159.65 99.4086C159.259 100.089 158.706 100.615 157.979 100.991L158.439 101.879C159.33 101.417 160.027 100.759 160.517 99.9074L159.65 99.4086ZM157.979 100.991C157.249 101.369 156.416 101.563 155.468 101.563V102.563C156.557 102.563 157.551 102.339 158.439 101.879L157.979 100.991ZM155.468 101.563C153.882 101.563 152.717 101.163 151.903 100.425L151.232 101.166C152.282 102.119 153.717 102.563 155.468 102.563V101.563ZM151.905 100.427C151.1 99.6903 150.67 98.6351 150.67 97.1877H149.67C149.67 98.8463 150.172 100.196 151.23 101.165L151.905 100.427ZM150.17 97.6877H153.442V96.6877H150.17V97.6877ZM152.942 97.1877C152.942 98.0159 153.114 98.7308 153.555 99.2304L154.304 98.5688C154.095 98.3316 153.942 97.9052 153.942 97.1877H152.942ZM153.555 99.2304C154.009 99.7459 154.687 99.9522 155.468 99.9522V98.9522C154.848 98.9522 154.5 98.7901 154.304 98.5688L153.555 99.2304ZM155.468 99.9522C156.218 99.9522 156.857 99.688 157.331 99.1399L156.574 98.4859C156.311 98.7901 155.961 98.9522 155.468 98.9522V99.9522ZM157.331 99.1399C157.804 98.5925 158.005 97.8526 158.005 96.9927H157.005C157.005 97.7074 156.838 98.181 156.574 98.4859L157.331 99.1399ZM158.005 96.9927V86.0711H157.005V96.9927H158.005ZM171.514 96.2992L171.21 96.696L171.214 96.6992L171.514 96.2992ZM169.174 95.2591L169.018 95.7343L169.021 95.7352L169.174 95.2591ZM166.498 94.1756L166.26 94.6155L166.261 94.6158L166.498 94.1756ZM164.526 87.9889L164.12 87.6966L164.119 87.6974L164.526 87.9889ZM166.595 86.4178L166.403 85.9562L166.402 85.9567L166.595 86.4178ZM172.641 86.472L172.429 86.925L172.432 86.9264L172.641 86.472ZM174.689 88.1947L174.27 88.4674L174.271 88.4702L174.689 88.1947ZM175.426 90.7301V91.2301H175.926V90.7301H175.426ZM172.175 90.7301H171.675V91.2301H172.175V90.7301ZM171.492 89.0507L171.16 89.4244L171.164 89.4273L171.492 89.0507ZM167.722 88.9532L168.023 89.3524L168.027 89.3492L167.722 88.9532ZM167.83 91.5644L167.55 91.9786L167.553 91.9804L167.83 91.5644ZM170.116 92.5395L169.972 93.0181L169.972 93.0183L170.116 92.5395ZM173.876 100.904L174.176 101.304L174.177 101.303L173.876 100.904ZM166.389 101.402L166.184 101.859L166.187 101.86L166.389 101.402ZM164.103 99.5714L163.688 99.8505L163.69 99.8531L164.103 99.5714ZM163.323 96.8843V96.3843H162.823V96.8843H163.323ZM166.584 96.8843H167.084V96.3843H166.584V96.8843ZM171.514 99.0296L171.805 99.436L171.81 99.4328L171.514 99.0296ZM172.664 97.7078C172.664 96.9604 172.391 96.3322 171.814 95.8992L171.214 96.6992C171.504 96.9163 171.664 97.2271 171.664 97.7078H172.664ZM171.818 95.9024C171.311 95.5137 170.459 95.146 169.326 94.7829L169.021 95.7352C170.142 96.0945 170.85 96.4202 171.21 96.696L171.818 95.9024ZM169.329 94.7838C168.216 94.42 167.355 94.0695 166.735 93.7353L166.261 94.6158C166.955 94.9895 167.878 95.3614 169.018 95.7343L169.329 94.7838ZM166.735 93.7357C165.059 92.8301 164.311 91.673 164.311 90.2642H163.311C163.311 92.1347 164.353 93.5852 166.26 94.6155L166.735 93.7357ZM164.311 90.2642C164.311 89.5117 164.519 88.8562 164.932 88.2803L164.119 87.6974C163.579 88.4506 163.311 89.312 163.311 90.2642H164.311ZM164.931 88.2811C165.353 87.6962 165.963 87.2251 166.788 86.8789L166.402 85.9567C165.436 86.3617 164.666 86.938 164.12 87.6966L164.931 88.2811ZM166.787 86.8795C167.621 86.5326 168.566 86.3544 169.629 86.3544V85.3544C168.453 85.3544 167.375 85.5518 166.403 85.9562L166.787 86.8795ZM169.629 86.3544C170.694 86.3544 171.624 86.5487 172.429 86.925L172.853 86.019C171.895 85.5718 170.817 85.3544 169.629 85.3544V86.3544ZM172.432 86.9264C173.236 87.2952 173.842 87.8099 174.27 88.4674L175.108 87.9221C174.568 87.0915 173.808 86.4577 172.85 86.0176L172.432 86.9264ZM174.271 88.4702C174.705 89.1273 174.926 89.8755 174.926 90.7301H175.926C175.926 89.6922 175.655 88.7501 175.106 87.9192L174.271 88.4702ZM175.426 90.2301H172.175V91.2301H175.426V90.2301ZM172.675 90.7301C172.675 89.8943 172.406 89.1849 171.821 88.674L171.164 89.4273C171.489 89.711 171.675 90.1212 171.675 90.7301H172.675ZM171.825 88.677C171.25 88.1662 170.477 87.9439 169.575 87.9439V88.9439C170.319 88.9439 170.825 89.1262 171.16 89.4244L171.825 88.677ZM169.575 87.9439C168.716 87.9439 167.975 88.1267 167.417 88.5571L168.027 89.3492C168.35 89.1006 168.845 88.9439 169.575 88.9439V87.9439ZM167.421 88.554C166.856 88.9801 166.561 89.5682 166.561 90.275H167.561C167.561 89.8839 167.707 89.5908 168.023 89.3524L167.421 88.554ZM166.561 90.275C166.561 90.9897 166.932 91.5609 167.55 91.9786L168.11 91.1502C167.702 90.8744 167.561 90.586 167.561 90.275H166.561ZM167.553 91.9804C168.132 92.3667 168.948 92.7088 169.972 93.0181L170.261 92.0609C169.277 91.7635 168.568 91.4555 168.108 91.1483L167.553 91.9804ZM169.972 93.0183C171.788 93.5644 173.047 94.2246 173.809 94.9671L174.507 94.2509C173.579 93.3464 172.143 92.627 170.26 92.0607L169.972 93.0183ZM173.809 94.9671C174.553 95.6922 174.926 96.5868 174.926 97.6861H175.926C175.926 96.3294 175.453 95.1726 174.507 94.2509L173.809 94.9671ZM174.926 97.6861C174.926 98.9045 174.475 99.8253 173.575 100.505L174.177 101.303C175.343 100.423 175.926 99.1981 175.926 97.6861H174.926ZM173.577 100.504C172.656 101.192 171.383 101.563 169.705 101.563V102.563C171.523 102.563 173.03 102.161 174.176 101.304L173.577 100.504ZM169.705 101.563C168.553 101.563 167.518 101.355 166.591 100.945L166.187 101.86C167.254 102.332 168.43 102.563 169.705 102.563V101.563ZM166.594 100.946C165.667 100.53 164.983 99.9743 164.516 99.2896L163.69 99.8531C164.278 100.714 165.118 101.379 166.184 101.859L166.594 100.946ZM164.518 99.2922C164.059 98.6095 163.823 97.813 163.823 96.8843H162.823C162.823 97.9925 163.107 98.9874 163.688 99.8505L164.518 99.2922ZM163.323 97.3843H166.584V96.3843H163.323V97.3843ZM166.084 96.8843C166.084 97.8575 166.379 98.6703 167.043 99.2262C167.691 99.7677 168.607 99.9955 169.705 99.9955V98.9955C168.722 98.9955 168.078 98.7881 167.685 98.4593C167.309 98.1447 167.084 97.6519 167.084 96.8843H166.084ZM169.705 99.9955C170.537 99.9955 171.257 99.8293 171.805 99.436L171.223 98.6232C170.905 98.8511 170.418 98.9955 169.705 98.9955V99.9955ZM171.81 99.4328C172.379 99.0156 172.664 98.4214 172.664 97.7078H171.664C171.664 98.1209 171.516 98.408 171.218 98.6264L171.81 99.4328Z" fill="#001A2E"/>
<defs>
<linearGradient id="paint0_linear" x1="162.982" y1="80.8467" x2="162.982" y2="106.504" gradientUnits="userSpaceOnUse">
<stop/>
<stop offset="0.354167" stop-color="#011B2F"/>
</linearGradient>
</defs>
</svg>
