<svg width="164" height="163" viewBox="0 0 164 163" fill="none" xmlns="http://www.w3.org/2000/svg">
<path d="M87.373 24.9639H109.216" stroke="#49C2E0" stroke-width="2" stroke-linecap="round" stroke-linejoin="round"/>
<path d="M45.7671 142.847L97.7745 142.847" stroke="#49C2E0" stroke-width="2" stroke-linecap="round" stroke-linejoin="round"/>
<path d="M20.8032 100.548L20.8032 116.497" stroke="#49C2E0" stroke-width="2" stroke-linecap="round" stroke-linejoin="round"/>
<path d="M153.942 42.9927L153.942 68.6497" stroke="#49C2E0" stroke-width="2" stroke-linecap="round" stroke-linejoin="round"/>
<path d="M16.8416 6.93408H11.0953C9.56337 6.93408 8.32153 8.17592 8.32153 9.70781V90.146C8.32153 91.6779 9.56337 92.9197 11.0953 92.9197H72.8108C74.3427 92.9197 75.5845 91.6779 75.5845 90.146V85.1499" stroke="#49C2E0" stroke-width="2.77373"/>
<path fill-rule="evenodd" clip-rule="evenodd" d="M16.0763 125.37C16.6312 125.37 17.0811 125.819 17.0811 126.374V132.403C17.0811 132.958 16.6312 133.408 16.0763 133.408C15.5214 133.408 15.0715 132.958 15.0715 132.403V126.374C15.0715 125.819 15.5214 125.37 16.0763 125.37Z" fill="#49C2E0"/>
<path fill-rule="evenodd" clip-rule="evenodd" d="M-8.78397e-08 147.407C-1.36352e-07 146.852 0.44985 146.402 1.00477 146.402L9.35521 146.402C9.91013 146.402 10.36 146.852 10.36 147.407C10.36 147.962 9.91013 148.412 9.35521 148.412L1.00477 148.412C0.44985 148.412 -3.93272e-08 147.962 -8.78397e-08 147.407Z" fill="#49C2E0"/>
<path fill-rule="evenodd" clip-rule="evenodd" d="M39.1113 139.436C39.1113 139.991 38.6615 140.441 38.1066 140.441H31.1479C30.5929 140.441 30.1431 139.991 30.1431 139.436C30.1431 138.881 30.5929 138.432 31.1479 138.432H38.1066C38.6615 138.432 39.1113 138.881 39.1113 139.436Z" fill="#49C2E0"/>
<path fill-rule="evenodd" clip-rule="evenodd" d="M24.4269 160.075C23.872 160.075 23.4221 159.625 23.4221 159.07L23.4221 153.503C23.4221 152.948 23.872 152.498 24.4269 152.498C24.9818 152.498 25.4316 152.948 25.4316 153.503L25.4316 159.07C25.4316 159.625 24.9818 160.075 24.4269 160.075Z" fill="#49C2E0"/>
<path fill-rule="evenodd" clip-rule="evenodd" d="M25.1185 121.351C25.6735 121.351 26.1233 121.8 26.1233 122.355L26.1233 132.403C26.1233 132.958 25.6735 133.408 25.1185 133.408C24.5636 133.408 24.1138 132.958 24.1138 132.403L24.1138 122.355C24.1138 121.8 24.5636 121.351 25.1185 121.351Z" fill="#49C2E0"/>
<path fill-rule="evenodd" clip-rule="evenodd" d="M2.7832 139.056C2.7832 138.501 3.23305 138.051 3.78797 138.051L9.35494 138.051C9.90986 138.051 10.3597 138.501 10.3597 139.056C10.3597 139.611 9.90986 140.061 9.35494 140.061L3.78797 140.061C3.23305 140.061 2.7832 139.611 2.7832 139.056Z" fill="#49C2E0"/>
<path fill-rule="evenodd" clip-rule="evenodd" d="M37.7197 147.787C37.7197 148.342 37.2699 148.792 36.715 148.792H31.148C30.5931 148.792 30.1432 148.342 30.1432 147.787C30.1432 147.232 30.5931 146.782 31.148 146.782H36.715C37.2699 146.782 37.7197 147.232 37.7197 147.787Z" fill="#49C2E0"/>
<path fill-rule="evenodd" clip-rule="evenodd" d="M16.0763 162.858C15.5214 162.858 15.0715 162.409 15.0715 161.854L15.0715 153.503C15.0715 152.948 15.5214 152.498 16.0763 152.498C16.6312 152.498 17.0811 152.948 17.0811 153.503L17.0811 161.854C17.0811 162.409 16.6312 162.858 16.0763 162.858Z" fill="#49C2E0"/>
<path fill-rule="evenodd" clip-rule="evenodd" d="M29.6138 134.107H11.365L11.365 152.356H29.6138V134.107ZM11.365 132.098C10.2552 132.098 9.35547 132.997 9.35547 134.107V152.356C9.35547 153.466 10.2552 154.366 11.365 154.366H29.6138C30.7236 154.366 31.6233 153.466 31.6233 152.356V134.107C31.6233 132.997 30.7236 132.098 29.6138 132.098H11.365Z" fill="#49C2E0"/>
<path fill-rule="evenodd" clip-rule="evenodd" d="M29.6138 134.107H11.365L11.365 152.356H29.6138V134.107ZM11.365 132.098C10.2552 132.098 9.35547 132.997 9.35547 134.107V152.356C9.35547 153.466 10.2552 154.366 11.365 154.366H29.6138C30.7236 154.366 31.6233 153.466 31.6233 152.356V134.107C31.6233 132.997 30.7236 132.098 29.6138 132.098H11.365Z" fill="#49C2E0"/>
<path fill-rule="evenodd" clip-rule="evenodd" d="M18.324 141.066V145.397H22.6554V141.066H18.324ZM17.3192 139.056C16.7643 139.056 16.3145 139.506 16.3145 140.061V146.402C16.3145 146.957 16.7643 147.407 17.3192 147.407H23.6601C24.215 147.407 24.6649 146.957 24.6649 146.402V140.061C24.6649 139.506 24.215 139.056 23.6601 139.056H17.3192Z" fill="#E2F0F7"/>
<path fill-rule="evenodd" clip-rule="evenodd" d="M134.576 4.34668C135.176 4.34668 135.663 4.83319 135.663 5.43332V11.9532C135.663 12.5533 135.176 13.0398 134.576 13.0398C133.976 13.0398 133.49 12.5533 133.49 11.9532V5.43332C133.49 4.83319 133.976 4.34668 134.576 4.34668Z" fill="#49C2E0"/>
<path fill-rule="evenodd" clip-rule="evenodd" d="M117.19 28.179C117.19 27.5788 117.676 27.0923 118.277 27.0923L127.307 27.0923C127.908 27.0923 128.394 27.5788 128.394 28.179C128.394 28.7791 127.908 29.2656 127.307 29.2656L118.277 29.2656C117.676 29.2656 117.19 28.7791 117.19 28.179Z" fill="#49C2E0"/>
<path fill-rule="evenodd" clip-rule="evenodd" d="M159.488 19.5593C159.488 20.1594 159.002 20.6459 158.401 20.6459H150.876C150.276 20.6459 149.789 20.1594 149.789 19.5593C149.789 18.9592 150.276 18.4727 150.876 18.4727H158.401C159.002 18.4727 159.488 18.9592 159.488 19.5593Z" fill="#49C2E0"/>
<path fill-rule="evenodd" clip-rule="evenodd" d="M143.607 41.8799C143.007 41.8799 142.521 41.3934 142.521 40.7932L142.521 34.7727C142.521 34.1725 143.007 33.686 143.607 33.686C144.208 33.686 144.694 34.1725 144.694 34.7727L144.694 40.7932C144.694 41.3934 144.208 41.8799 143.607 41.8799Z" fill="#49C2E0"/>
<path fill-rule="evenodd" clip-rule="evenodd" d="M144.356 -4.28646e-08C144.956 -6.6538e-08 145.442 0.486506 145.442 1.08664L145.442 11.953C145.442 12.5532 144.956 13.0397 144.356 13.0397C143.756 13.0397 143.269 12.5532 143.269 11.953L143.269 1.08664C143.269 0.486506 143.756 -1.91911e-08 144.356 -4.28646e-08Z" fill="#49C2E0"/>
<path fill-rule="evenodd" clip-rule="evenodd" d="M120.2 19.1482C120.2 18.5481 120.687 18.0616 121.287 18.0616L127.307 18.0616C127.908 18.0616 128.394 18.5481 128.394 19.1482C128.394 19.7484 127.908 20.2349 127.307 20.2349L121.287 20.2349C120.687 20.2349 120.2 19.7484 120.2 19.1482Z" fill="#49C2E0"/>
<path fill-rule="evenodd" clip-rule="evenodd" d="M157.983 28.5905C157.983 29.1907 157.497 29.6772 156.897 29.6772H150.876C150.276 29.6772 149.79 29.1907 149.79 28.5905C149.79 27.9904 150.276 27.5039 150.876 27.5039H156.897C157.497 27.5039 157.983 27.9904 157.983 28.5905Z" fill="#49C2E0"/>
<path fill-rule="evenodd" clip-rule="evenodd" d="M134.576 44.8901C133.976 44.8901 133.489 44.4036 133.489 43.8035L133.489 34.7726C133.489 34.1725 133.976 33.686 134.576 33.686C135.176 33.686 135.663 34.1725 135.663 34.7726L135.663 43.8035C135.663 44.4036 135.176 44.8901 134.576 44.8901Z" fill="#49C2E0"/>
<path fill-rule="evenodd" clip-rule="evenodd" d="M149.217 13.7958H129.481L129.481 33.5316H149.217V13.7958ZM129.481 11.6226C128.281 11.6226 127.308 12.5956 127.308 13.7958V33.5316C127.308 34.7319 128.281 35.7049 129.481 35.7049H149.217C150.417 35.7049 151.39 34.7319 151.39 33.5316V13.7958C151.39 12.5956 150.417 11.6226 149.217 11.6226H129.481Z" fill="#49C2E0"/>
<path fill-rule="evenodd" clip-rule="evenodd" d="M149.217 13.7958H129.481L129.481 33.5316H149.217V13.7958ZM129.481 11.6226C128.281 11.6226 127.308 12.5956 127.308 13.7958V33.5316C127.308 34.7319 128.281 35.7049 129.481 35.7049H149.217C150.417 35.7049 151.39 34.7319 151.39 33.5316V13.7958C151.39 12.5956 150.417 11.6226 149.217 11.6226H129.481Z" fill="#49C2E0"/>
<path fill-rule="evenodd" clip-rule="evenodd" d="M137.007 21.3217V26.006H141.691V21.3217H137.007ZM135.92 19.1484C135.32 19.1484 134.833 19.6349 134.833 20.2351V27.0927C134.833 27.6928 135.32 28.1793 135.92 28.1793H142.777C143.378 28.1793 143.864 27.6928 143.864 27.0927V20.2351C143.864 19.6349 143.378 19.1484 142.777 19.1484H135.92Z" fill="#E2F0F7"/>
<path fill-rule="evenodd" clip-rule="evenodd" d="M139.976 87.876C140.645 87.876 141.187 88.4868 141.187 89.2404V93.7761C141.187 94.5297 140.645 95.1405 139.976 95.1405C139.308 95.1405 138.766 94.5297 138.766 93.7761V89.2404C138.766 88.4868 139.308 87.876 139.976 87.876Z" fill="#E2F0F7"/>
<path fill-rule="evenodd" clip-rule="evenodd" d="M127.05 87.585C127.749 87.585 128.315 88.2231 128.315 89.0104V93.749C128.315 94.5362 127.749 95.1744 127.05 95.1744C126.351 95.1744 125.785 94.5362 125.785 93.749V89.0104C125.785 88.2231 126.351 87.585 127.05 87.585Z" fill="#E2F0F7"/>
<path fill-rule="evenodd" clip-rule="evenodd" d="M156.412 103.939V97.8856C156.412 87.8554 148.228 79.7243 138.133 79.7243C128.038 79.7243 119.855 87.8554 119.855 97.8856V103.939C119.855 105.425 121.067 106.63 122.563 106.63H153.704C155.199 106.63 156.412 105.425 156.412 103.939ZM138.133 77.0337C126.543 77.0337 117.147 86.3694 117.147 97.8856V103.939C117.147 106.911 119.571 109.321 122.563 109.321H153.704C156.695 109.321 159.12 106.911 159.12 103.939V97.8856C159.12 86.3694 149.724 77.0337 138.133 77.0337Z" fill="#E2F0F7"/>
<path fill-rule="evenodd" clip-rule="evenodd" d="M155.659 151.878H119.8V120.258C119.8 118.798 120.988 117.614 122.454 117.614H153.005C154.471 117.614 155.659 118.798 155.659 120.258V151.878ZM117.147 154.522V120.258C117.147 117.338 119.523 114.971 122.454 114.971H153.005C155.936 114.971 158.313 117.338 158.313 120.258V154.522H117.147Z" fill="#E2F0F7"/>
<path fill-rule="evenodd" clip-rule="evenodd" d="M144.36 114.769H131.099V109.522H144.36V114.769ZM128.447 117.392V106.899H147.012V117.392H128.447Z" fill="#E2F0F7"/>
<path fill-rule="evenodd" clip-rule="evenodd" d="M136.795 70.2535C138.336 70.6662 139.919 69.7522 140.331 68.2122C140.744 66.6721 139.83 65.089 138.29 64.6764C136.75 64.2637 135.167 65.1777 134.754 66.7178C134.341 68.2578 135.255 69.8409 136.795 70.2535ZM136.181 72.5464C138.987 73.2983 141.872 71.6329 142.624 68.8265C143.376 66.0201 141.711 63.1355 138.904 62.3835C136.098 61.6316 133.213 63.297 132.461 66.1034C131.709 68.9098 133.375 71.7944 136.181 72.5464Z" fill="#E2F0F7"/>
<path fill-rule="evenodd" clip-rule="evenodd" d="M136.519 78.6479L136.519 71.3833L138.941 71.3833L138.941 78.6479L136.519 78.6479Z" fill="#E2F0F7"/>
<path fill-rule="evenodd" clip-rule="evenodd" d="M151.855 125.296C153.991 125.296 155.723 123.564 155.723 121.428C155.723 119.292 153.991 117.561 151.855 117.561C149.719 117.561 147.988 119.292 147.988 121.428C147.988 123.564 149.719 125.296 151.855 125.296ZM151.855 127.885C155.422 127.885 158.313 124.994 158.313 121.428C158.313 117.862 155.422 114.971 151.855 114.971C148.289 114.971 145.398 117.862 145.398 121.428C145.398 124.994 148.289 127.885 151.855 127.885Z" fill="#E2F0F7"/>
<path fill-rule="evenodd" clip-rule="evenodd" d="M147.95 123.781C148.685 123.793 149.261 124.409 149.236 125.157C149.22 125.655 149.228 126.103 149.236 126.576C149.242 126.877 149.248 127.188 149.247 127.529C149.247 128.339 149.207 129.227 148.977 130.104C148.739 131.008 148.303 131.883 147.542 132.673C146.795 133.451 145.787 134.09 144.48 134.618C142.387 135.463 140.632 135.337 139.377 134.958C138.758 134.772 138.272 134.528 137.932 134.324C137.762 134.222 137.627 134.129 137.529 134.057C137.48 134.021 137.44 133.99 137.41 133.965C137.394 133.953 137.381 133.942 137.371 133.933L137.357 133.921L137.351 133.916L137.348 133.914L137.347 133.913C137.346 133.913 137.346 133.912 138.222 132.877L137.346 133.912C136.792 133.43 136.735 132.576 137.219 132.005C137.7 131.437 138.533 131.361 139.087 131.832C139.091 131.835 139.102 131.844 139.12 131.857C139.157 131.885 139.223 131.931 139.316 131.987C139.503 132.099 139.794 132.247 140.175 132.361C140.919 132.585 142.056 132.701 143.534 132.104C144.595 131.675 145.244 131.223 145.654 130.798C146.05 130.385 146.272 129.946 146.404 129.448C146.542 128.922 146.582 128.32 146.583 127.574C146.583 127.34 146.579 127.074 146.574 126.791C146.565 126.258 146.555 125.665 146.573 125.113C146.598 124.365 147.214 123.769 147.95 123.781ZM157.338 122.852C158.074 122.825 158.68 123.41 158.693 124.157C158.696 124.302 158.699 124.453 158.702 124.608C158.746 126.767 158.809 129.858 157.72 132.895C156.517 136.25 153.959 139.434 148.85 141.497C145.383 142.898 141.958 143.341 139.011 143.117C136.095 142.896 133.532 142.01 131.883 140.621C131.322 140.148 131.252 139.295 131.727 138.716C132.203 138.137 133.043 138.051 133.605 138.524C134.704 139.45 136.681 140.222 139.256 140.417C141.801 140.61 144.819 140.23 147.904 138.984C152.317 137.201 154.29 134.595 155.218 132.007C156.128 129.47 156.079 126.853 156.037 124.642C156.034 124.511 156.032 124.381 156.029 124.252C156.017 123.505 156.602 122.878 157.338 122.852Z" fill="#E2F0F7"/>
<path fill-rule="evenodd" clip-rule="evenodd" d="M106.92 124.791C107.327 124.731 107.634 124.867 107.731 124.913C108.152 125.111 108.416 125.502 108.47 125.932C108.479 125.944 108.488 125.955 108.497 125.968C108.769 126.312 109.284 126.828 110.048 127.304C111.542 128.235 114.009 129.031 117.559 128.019C118.278 127.814 119.013 128.225 119.201 128.937C119.39 129.649 118.96 130.392 118.241 130.597C113.906 131.832 110.665 130.886 108.585 129.589C107.562 128.951 106.823 128.233 106.37 127.658C106.156 127.388 105.955 127.085 105.838 126.796C105.807 126.718 105.767 126.605 105.741 126.471C105.722 126.371 105.675 126.088 105.784 125.752C105.846 125.563 105.967 125.33 106.193 125.13C106.424 124.926 106.687 124.826 106.92 124.791ZM106.54 127.345C106.553 127.352 106.567 127.358 106.58 127.364C106.562 127.356 106.548 127.349 106.54 127.345ZM99.4718 128.7C100.161 128.407 100.944 128.721 101.221 129.402C101.949 131.19 103.751 133.78 106.524 135.555C109.249 137.3 112.916 138.265 117.521 136.89C118.237 136.676 118.977 137.078 119.175 137.787C119.372 138.496 118.952 139.245 118.236 139.458C112.805 141.08 108.341 139.94 105.033 137.823C101.774 135.736 99.6408 132.707 98.7262 130.462C98.449 129.781 98.7828 128.992 99.4718 128.7Z" fill="#E2F0F7"/>
<path fill-rule="evenodd" clip-rule="evenodd" d="M130.372 126.95L132.745 133.108C132.942 133.617 132.805 134.202 132.4 134.585C131.995 134.967 131.404 135.068 130.909 134.841L125.525 132.372C125.521 132.478 125.519 132.584 125.521 132.692C125.565 135.803 128.048 138.172 130.994 138.059C133.94 137.947 136.352 135.391 136.307 132.28C136.262 129.169 133.78 126.8 130.834 126.913C130.678 126.919 130.524 126.931 130.372 126.95ZM128.099 124.804C128.941 124.465 129.849 124.263 130.795 124.227C135.288 124.055 138.926 127.649 138.991 132.177C139.056 136.706 135.526 140.573 131.033 140.745C126.539 140.916 122.902 137.323 122.837 132.794C122.823 131.836 122.97 130.906 123.254 130.034C123.374 129.664 123.647 129.359 124.003 129.199C124.359 129.039 124.763 129.039 125.111 129.199L129.032 130.997L127.321 126.559C127.194 126.228 127.204 125.858 127.35 125.529C127.496 125.199 127.766 124.939 128.099 124.804Z" fill="#E2F0F7"/>
<path fill-rule="evenodd" clip-rule="evenodd" d="M102.15 115.426L101.718 122.978C101.687 123.523 101.321 124 100.795 124.181C100.268 124.363 99.6879 124.212 99.3302 123.8L94.8398 118.637C94.7443 118.811 94.6558 118.992 94.5748 119.178C93.1559 122.438 94.6223 126.081 97.7534 127.357C100.884 128.632 104.604 127.1 106.023 123.84C107.442 120.58 105.975 116.937 102.844 115.662C102.615 115.568 102.383 115.49 102.15 115.426ZM100.962 112.557C101.957 112.598 102.955 112.807 103.916 113.199C108.481 115.058 110.495 120.294 108.51 124.853C106.526 129.413 101.247 131.679 96.6814 129.819C92.1162 127.96 90.1026 122.724 92.0872 118.165C92.5074 117.2 93.0752 116.336 93.7532 115.593C94.0159 115.305 94.3903 115.141 94.7805 115.142C95.1707 115.143 95.5387 115.309 95.7902 115.598L99.2048 119.525L99.5299 113.834C99.5501 113.481 99.7125 113.148 99.9812 112.908C100.25 112.668 100.603 112.542 100.962 112.557Z" fill="#E2F0F7"/>
<rect x="16.6425" y="1.38687" width="63.7958" height="83.2119" rx="1.38687" stroke="white" stroke-width="2.77373"/>
<rect x="42.2997" y="47.8468" width="38.1388" height="26.3504" rx="1.38687" fill="white" stroke="white" stroke-width="2.77373"/>
<path d="M17.6826 14.9087H79.7448" stroke="white" stroke-width="2.77373"/>
<path d="M23.5769 23.5767H73.5041" stroke="#49C2E0" stroke-width="2.77373" stroke-linecap="round" stroke-linejoin="round"/>
<path d="M24.9639 9.01465L23.577 9.01465" stroke="#49C2E0" stroke-width="2.77373" stroke-linecap="round" stroke-linejoin="round"/>
<path d="M32.5916 9.01465L31.2047 9.01465" stroke="#49C2E0" stroke-width="2.77373" stroke-linecap="round" stroke-linejoin="round"/>
<path d="M40.2192 9.01465L38.8324 9.01465" stroke="#49C2E0" stroke-width="2.77373" stroke-linecap="round" stroke-linejoin="round"/>
<path d="M23.5769 31.2046H73.5041" stroke="#49C2E0" stroke-width="2.77373" stroke-linecap="round" stroke-linejoin="round"/>
<path d="M23.5769 38.832H56.1682" stroke="#49C2E0" stroke-width="2.77373" stroke-linecap="round" stroke-linejoin="round"/>
<path d="M54.5051 53.0711H57.7555V63.9927C57.7555 64.9967 57.5316 65.8851 57.0838 66.658C56.6431 67.4237 56.0183 68.016 55.2093 68.435C54.4003 68.8539 53.4866 69.0634 52.4681 69.0634C50.7995 69.0634 49.4993 68.6408 48.5675 67.7957C47.6357 66.9434 47.1698 65.7407 47.1698 64.1877H50.442C50.442 64.9606 50.6045 65.5312 50.9295 65.8996C51.2546 66.268 51.7674 66.4522 52.4681 66.4522C53.0893 66.4522 53.5841 66.2391 53.9525 65.8129C54.3209 65.3867 54.5051 64.78 54.5051 63.9927V53.0711ZM69.1642 64.7078C69.1642 64.0938 68.9475 63.6243 68.5141 63.2992C68.0807 62.9669 67.3006 62.6202 66.1738 62.2591C65.047 61.8907 64.1549 61.5295 63.4976 61.1756C61.7062 60.2077 60.8105 58.9039 60.8105 57.2642C60.8105 56.4118 61.0489 55.6534 61.5256 54.9889C62.0096 54.3171 62.6994 53.7934 63.5951 53.4178C64.498 53.0422 65.5093 52.8544 66.6289 52.8544C67.7557 52.8544 68.7597 53.0603 69.641 53.472C70.5222 53.8765 71.2048 54.4507 71.6887 55.1947C72.1799 55.9387 72.4255 56.7838 72.4255 57.7301H69.1751C69.1751 57.0078 68.9475 56.448 68.4925 56.0507C68.0374 55.6462 67.3981 55.4439 66.5747 55.4439C65.7801 55.4439 65.1625 55.6137 64.7219 55.9532C64.2813 56.2854 64.061 56.7261 64.061 57.275C64.061 57.7879 64.3174 58.2177 64.8303 58.5644C65.3503 58.9111 66.1124 59.2361 67.1164 59.5395C68.9656 60.0957 70.3127 60.7855 71.1578 61.609C72.003 62.4324 72.4255 63.4581 72.4255 64.6861C72.4255 66.0513 71.9091 67.1239 70.8761 67.904C69.8432 68.6769 68.4527 69.0634 66.7047 69.0634C65.4912 69.0634 64.386 68.8431 63.3892 68.4024C62.3924 67.9546 61.6304 67.3442 61.1031 66.5714C60.583 65.7985 60.323 64.9028 60.323 63.8843H63.5843C63.5843 65.6251 64.6244 66.4955 66.7047 66.4955C67.4776 66.4955 68.0807 66.3402 68.5141 66.0296C68.9475 65.7118 69.1642 65.2712 69.1642 64.7078Z" fill="url(#paint0_linear)"/>
<path d="M54.5051 53.0711V52.5711H54.0051V53.0711H54.5051ZM57.7555 53.0711H58.2555V52.5711H57.7555V53.0711ZM57.0838 66.658L56.6511 66.4074L56.6504 66.4086L57.0838 66.658ZM48.5675 67.7957L48.2301 68.1646L48.2316 68.1661L48.5675 67.7957ZM47.1698 64.1877V63.6877H46.6698V64.1877H47.1698ZM50.442 64.1877H50.942V63.6877H50.442V64.1877ZM54.5051 53.5711H57.7555V52.5711H54.5051V53.5711ZM57.2555 53.0711V63.9927H58.2555V53.0711H57.2555ZM57.2555 63.9927C57.2555 64.9198 57.0496 65.7197 56.6511 66.4074L57.5164 66.9087C58.0136 66.0506 58.2555 65.0736 58.2555 63.9927H57.2555ZM56.6504 66.4086C56.2591 67.0886 55.7062 67.6146 54.9794 67.991L55.4392 68.879C56.3305 68.4174 57.0272 67.7588 57.5171 66.9074L56.6504 66.4086ZM54.9794 67.991C54.2495 68.3689 53.4161 68.5634 52.4681 68.5634V69.5634C53.557 69.5634 54.5512 69.3389 55.4392 68.879L54.9794 67.991ZM52.4681 68.5634C50.8824 68.5634 49.7166 68.1629 48.9034 67.4253L48.2316 68.1661C49.282 69.1187 50.7167 69.5634 52.4681 69.5634V68.5634ZM48.905 67.4268C48.0999 66.6903 47.6698 65.6351 47.6698 64.1877H46.6698C46.6698 65.8463 47.1716 67.1964 48.2301 68.1646L48.905 67.4268ZM47.1698 64.6877H50.442V63.6877H47.1698V64.6877ZM49.942 64.1877C49.942 65.0159 50.1138 65.7308 50.5546 66.2304L51.3045 65.5688C51.0952 65.3316 50.942 64.9052 50.942 64.1877H49.942ZM50.5546 66.2304C51.0095 66.7459 51.6868 66.9522 52.4681 66.9522V65.9522C51.848 65.9522 51.4997 65.7901 51.3045 65.5688L50.5546 66.2304ZM52.4681 66.9522C53.2177 66.9522 53.8569 66.688 54.3307 66.1399L53.5742 65.4859C53.3112 65.7901 52.9608 65.9522 52.4681 65.9522V66.9522ZM54.3307 66.1399C54.8039 65.5925 55.0051 64.8526 55.0051 63.9927H54.0051C54.0051 64.7074 53.8378 65.181 53.5742 65.4859L54.3307 66.1399ZM55.0051 63.9927V53.0711H54.0051V63.9927H55.0051ZM68.5141 63.2992L68.2099 63.696L68.2141 63.6992L68.5141 63.2992ZM66.1738 62.2591L66.0184 62.7343L66.0212 62.7352L66.1738 62.2591ZM63.4976 61.1756L63.2599 61.6155L63.2605 61.6158L63.4976 61.1756ZM61.5256 54.9889L61.1199 54.6966L61.1194 54.6974L61.5256 54.9889ZM63.5951 53.4178L63.403 52.9562L63.4017 52.9567L63.5951 53.4178ZM69.641 53.472L69.4293 53.925L69.4324 53.9264L69.641 53.472ZM71.6887 55.1947L71.2696 55.4674L71.2715 55.4702L71.6887 55.1947ZM72.4255 57.7301V58.2301H72.9255V57.7301H72.4255ZM69.1751 57.7301H68.6751V58.2301H69.1751V57.7301ZM68.4925 56.0507L68.1603 56.4244L68.1636 56.4273L68.4925 56.0507ZM64.7219 55.9532L65.023 56.3524L65.0271 56.3492L64.7219 55.9532ZM64.8303 58.5644L64.5502 58.9786L64.5529 58.9804L64.8303 58.5644ZM67.1164 59.5395L66.9718 60.0181L66.9724 60.0183L67.1164 59.5395ZM70.8761 67.904L71.1757 68.3044L71.1775 68.303L70.8761 67.904ZM63.3892 68.4024L63.1843 68.8585L63.1871 68.8598L63.3892 68.4024ZM61.1031 66.5714L60.6882 66.8505L60.69 66.8531L61.1031 66.5714ZM60.323 63.8843V63.3843H59.823V63.8843H60.323ZM63.5843 63.8843H64.0843V63.3843H63.5843V63.8843ZM68.5141 66.0296L68.8054 66.436L68.8098 66.4328L68.5141 66.0296ZM69.6642 64.7078C69.6642 63.9604 69.3915 63.3322 68.8141 62.8992L68.2141 63.6992C68.5036 63.9163 68.6642 64.2271 68.6642 64.7078H69.6642ZM68.8183 62.9024C68.3114 62.5137 67.4592 62.146 66.3264 61.7829L66.0212 62.7352C67.142 63.0945 67.8501 63.4202 68.2099 63.696L68.8183 62.9024ZM66.3292 61.7838C65.2162 61.42 64.3552 61.0695 63.7346 60.7353L63.2605 61.6158C63.9546 61.9895 64.8777 62.3614 66.0184 62.7343L66.3292 61.7838ZM63.7353 60.7357C62.0593 59.8301 61.3105 58.673 61.3105 57.2642H60.3105C60.3105 59.1347 61.3531 60.5852 63.2599 61.6155L63.7353 60.7357ZM61.3105 57.2642C61.3105 56.5117 61.5188 55.8562 61.9319 55.2803L61.1194 54.6974C60.579 55.4506 60.3105 56.312 60.3105 57.2642H61.3105ZM61.9313 55.2811C62.3527 54.6962 62.9628 54.2251 63.7885 53.8789L63.4017 52.9567C62.436 53.3617 61.6665 53.938 61.1199 54.6966L61.9313 55.2811ZM63.7871 53.8795C64.621 53.5326 65.5657 53.3544 66.6289 53.3544V52.3544C65.4528 52.3544 64.375 52.5518 63.403 52.9562L63.7871 53.8795ZM66.6289 53.3544C67.6941 53.3544 68.6241 53.5487 69.4293 53.925L69.8526 53.019C68.8954 52.5718 67.8173 52.3544 66.6289 52.3544V53.3544ZM69.4324 53.9264C70.2359 54.2952 70.842 54.8099 71.2696 55.4674L72.1079 54.9221C71.5676 54.0915 70.8085 53.4577 69.8495 53.0176L69.4324 53.9264ZM71.2715 55.4702C71.7053 56.1273 71.9255 56.8755 71.9255 57.7301H72.9255C72.9255 56.6922 72.6545 55.7501 72.106 54.9192L71.2715 55.4702ZM72.4255 57.2301H69.1751V58.2301H72.4255V57.2301ZM69.6751 57.7301C69.6751 56.8943 69.4064 56.1849 68.8213 55.674L68.1636 56.4273C68.4886 56.711 68.6751 57.1212 68.6751 57.7301H69.6751ZM68.8246 55.677C68.25 55.1662 67.477 54.9439 66.5747 54.9439V55.9439C67.3193 55.9439 67.8248 56.1262 68.1603 56.4244L68.8246 55.677ZM66.5747 54.9439C65.7157 54.9439 64.9753 55.1267 64.4167 55.5571L65.0271 56.3492C65.3497 56.1006 65.8446 55.9439 66.5747 55.9439V54.9439ZM64.4209 55.554C63.8557 55.9801 63.561 56.5682 63.561 57.275H64.561C64.561 56.8839 64.7069 56.5908 65.023 56.3524L64.4209 55.554ZM63.561 57.275C63.561 57.9897 63.9324 58.5609 64.5502 58.9786L65.1103 58.1502C64.7024 57.8744 64.561 57.586 64.561 57.275H63.561ZM64.5529 58.9804C65.1323 59.3667 65.948 59.7088 66.9718 60.0181L67.261 59.0609C66.2768 58.7635 65.5684 58.4555 65.1076 58.1483L64.5529 58.9804ZM66.9724 60.0183C68.788 60.5644 70.0469 61.2246 70.8089 61.9671L71.5068 61.2509C70.5785 60.3464 69.1432 59.627 67.2604 59.0607L66.9724 60.0183ZM70.8089 61.9671C71.5531 62.6922 71.9255 63.5868 71.9255 64.6861H72.9255C72.9255 63.3294 72.4528 62.1726 71.5068 61.2509L70.8089 61.9671ZM71.9255 64.6861C71.9255 65.9045 71.4748 66.8253 70.5748 67.5051L71.1775 68.303C72.3433 67.4226 72.9255 66.1981 72.9255 64.6861H71.9255ZM70.5766 67.5037C69.6562 68.1924 68.3826 68.5634 66.7047 68.5634V69.5634C68.5229 69.5634 70.0302 69.1615 71.1757 68.3044L70.5766 67.5037ZM66.7047 68.5634C65.5529 68.5634 64.5176 68.3546 63.5914 67.9451L63.1871 68.8598C64.2544 69.3316 65.4295 69.5634 66.7047 69.5634V68.5634ZM63.5941 67.9464C62.6671 67.5299 61.9832 66.9743 61.5161 66.2896L60.69 66.8531C61.2775 67.7142 62.1177 68.3793 63.1843 68.8585L63.5941 67.9464ZM61.5179 66.2922C61.0585 65.6095 60.823 64.813 60.823 63.8843H59.823C59.823 64.9925 60.1075 65.9874 60.6882 66.8505L61.5179 66.2922ZM60.323 64.3843H63.5843V63.3843H60.323V64.3843ZM63.0843 63.8843C63.0843 64.8575 63.3792 65.6703 64.0435 66.2262C64.6907 66.7677 65.607 66.9955 66.7047 66.9955V65.9955C65.7221 65.9955 65.0782 65.7881 64.6852 65.4593C64.3093 65.1447 64.0843 64.6519 64.0843 63.8843H63.0843ZM66.7047 66.9955C67.5371 66.9955 68.2566 66.8293 68.8054 66.436L68.2229 65.6232C67.9048 65.8511 67.4181 65.9955 66.7047 65.9955V66.9955ZM68.8098 66.4328C69.3788 66.0156 69.6642 65.4214 69.6642 64.7078H68.6642C68.6642 65.1209 68.5163 65.408 68.2184 65.6264L68.8098 66.4328Z" fill="#001A2E"/>
<defs>
<linearGradient id="paint0_linear" x1="59.9819" y1="47.8467" x2="59.9819" y2="73.5037" gradientUnits="userSpaceOnUse">
<stop/>
<stop offset="0.354167" stop-color="#011B2F"/>
</linearGradient>
</defs>
</svg>
