<svg width="155" height="151" viewBox="0 0 155 151" fill="none" xmlns="http://www.w3.org/2000/svg">
<path d="M89.5418 16.4598H21.7271L21.7271 37.1992" stroke="#49C2E0" stroke-width="2" stroke-linecap="round" stroke-linejoin="round"/>
<path d="M63.2061 133.654L85.5915 133.654" stroke="#49C2E0" stroke-width="2" stroke-linecap="round" stroke-linejoin="round"/>
<path d="M119.828 55.3052L119.828 38.8453" stroke="#49C2E0" stroke-width="2" stroke-linecap="round" stroke-linejoin="round"/>
<path d="M49.2269 128.908C46.201 128.908 43.2734 128.416 40.5427 127.53C39.6817 127.235 38.7222 127.456 38.058 128.121L34.1956 132.967C27.2335 129.646 20.7142 123.373 17.2454 116.164L22.0426 112.081C22.7069 111.392 22.9037 110.432 22.6331 109.571C21.7228 106.841 21.2554 103.913 21.2554 100.887C21.2554 99.5587 20.1484 98.4517 18.8199 98.4517H10.3079C8.97944 98.4517 7.38037 99.0421 7.38037 100.887C7.38037 123.742 26.397 142.734 49.2269 142.734C50.9736 142.734 51.6624 141.184 51.6624 139.831V131.343C51.6624 130.015 50.5554 128.908 49.2269 128.908Z" stroke="#49C2E0" stroke-width="2.63358"/>
<path d="M47.7418 97.2735H47.7572V104.748V107.098L49.8742 106.079C64.7941 98.8949 74.5799 84.5248 74.5799 70.4354C74.5799 55.6263 62.5509 43.5972 47.7418 43.5972C32.9327 43.5972 20.9036 55.6263 20.9036 70.4354C20.9036 85.2445 32.9327 97.2735 47.7418 97.2735Z" stroke="#49C2E0" stroke-width="2.95296"/>
<path d="M45.125 85H49.875V80.04H45.125V85Z" fill="white"/>
<path d="M45.125 76.32H49.875C49.875 70.74 57 70.12 57 63.92C57 58.4392 52.7487 54 47.5 54C42.2512 54 38 58.4392 38 63.92H42.75C42.75 61.192 44.8875 58.96 47.5 58.96C50.1125 58.96 52.25 61.192 52.25 63.92C52.25 68.88 45.125 68.26 45.125 76.32Z" fill="white"/>
<path d="M135.168 105.781C131.891 108.392 127.739 109.952 123.223 109.952C112.626 109.952 104.035 101.362 104.035 90.7647C104.035 80.1677 112.626 71.5771 123.223 71.5771C133.82 71.5771 142.41 80.1677 142.41 90.7647C142.41 93.5367 141.822 96.1714 140.765 98.5509" stroke="#E2F0F7" stroke-width="2.63358" stroke-linecap="round"/>
<path d="M148.139 84.933C145.176 74.0695 135.847 65.1812 123.12 65.1812C110.393 65.1812 101.393 73.7403 99.0884 84.933" stroke="#E2F0F7" stroke-width="2.63358"/>
<path fill-rule="evenodd" clip-rule="evenodd" d="M124.656 85.1943C125.217 85.1943 125.671 85.7065 125.671 86.3384V90.1416C125.671 90.7734 125.217 91.2856 124.656 91.2856C124.095 91.2856 123.641 90.7734 123.641 90.1416V86.3384C123.641 85.7065 124.095 85.1943 124.656 85.1943Z" fill="#E2F0F7"/>
<path fill-rule="evenodd" clip-rule="evenodd" d="M113.817 84.9502C114.403 84.9502 114.878 85.4853 114.878 86.1454V90.1187C114.878 90.7788 114.403 91.3139 113.817 91.3139C113.231 91.3139 112.756 90.7788 112.756 90.1187V86.1454C112.756 85.4853 113.231 84.9502 113.817 84.9502Z" fill="#E2F0F7"/>
<path d="M119.733 96.4517C120.322 97.2931 122.058 98.8189 124.297 98.1907C126.537 97.5626 127.413 95.3038 127.571 94.253" stroke="#E2F0F7" stroke-width="2.63358" stroke-linecap="round" stroke-linejoin="round"/>
<path d="M152.722 91.0552C152.722 94.0766 150.393 96.425 147.643 96.425C144.892 96.425 142.564 94.0766 142.564 91.0552C142.564 88.0338 144.892 85.6854 147.643 85.6854C150.393 85.6854 152.722 88.0338 152.722 91.0552Z" stroke="#E2F0F7" stroke-width="2.63358"/>
<path d="M103.881 91.0552C103.881 94.2675 101.773 96.425 99.6741 96.425C97.5749 96.425 95.4672 94.2675 95.4672 91.0552C95.4672 87.843 97.5749 85.6854 99.6741 85.6854C101.773 85.6854 103.881 87.843 103.881 91.0552Z" stroke="#E2F0F7" stroke-width="2.63358"/>
<path d="M147.643 97.1602V97.1602C147.643 99.7291 145.56 101.812 142.991 101.812H130.49" stroke="#E2F0F7" stroke-width="2.63358"/>
<circle cx="130.781" cy="101.812" r="2.9072" fill="#E2F0F7"/>
<path d="M95.4672 137.457C95.4672 122.266 107.782 109.952 122.972 109.952C138.162 109.952 150.477 122.266 150.477 137.457V143.53H95.4672V137.457Z" stroke="#E2F0F7" stroke-width="2.63358"/>
<path d="M124.003 122.606L128.012 111.506C128.279 110.765 129.134 110.423 129.839 110.776L134.924 113.318C135.492 113.602 135.777 114.251 135.6 114.861L131.702 128.355C131.428 129.303 130.246 129.624 129.53 128.944L124.335 124.008C123.956 123.648 123.826 123.098 124.003 122.606Z" stroke="#E2F0F7" stroke-width="2.63358"/>
<path d="M122.31 122.606L118.302 111.506C118.034 110.765 117.179 110.423 116.474 110.776L111.389 113.318C110.821 113.602 110.537 114.251 110.713 114.861L114.611 128.355C114.885 129.303 116.067 129.624 116.783 128.944L121.979 124.008C122.358 123.648 122.488 123.098 122.31 122.606Z" stroke="#E2F0F7" stroke-width="2.63358"/>
<path d="M122.603 123.416V142.999" stroke="#E2F0F7" stroke-width="2.63358"/>
<circle cx="120.157" cy="16.1307" r="14.8139" stroke="#49C2E0" stroke-width="2.63358"/>
<path d="M120.421 7.26416V18.3705L114.075 12.9597" stroke="white" stroke-width="2.63358" stroke-linecap="round" stroke-linejoin="round"/>
</svg>
