<svg width="105" height="100" viewBox="0 0 105 100" fill="none" xmlns="http://www.w3.org/2000/svg">
<path d="M17 32C17 30.3431 18.3431 29 20 29H81C82.6569 29 84 30.3431 84 32V64H17V32Z" stroke="#49C2E0" stroke-width="2"/>
<path d="M7 25C7 22.2386 9.23858 20 12 20H89C91.7614 20 94 22.2386 94 25V77C94 79.7614 91.7614 82 89 82H12C9.23858 82 7 79.7614 7 77V25Z" stroke="#287CAB" stroke-width="2"/>
<path d="M17 70C17 71.6569 18.3431 73 20 73H81C82.6569 73 84 71.6569 84 70V64H17V70Z" stroke="#49C2E0" stroke-width="2"/>
<path fill-rule="evenodd" clip-rule="evenodd" d="M43.05 53C43.6299 53 44.1 53.4477 44.1 54V56C44.1 56.5523 43.6299 57 43.05 57C42.4701 57 42 56.5523 42 56V54C42 53.4477 42.4701 53 43.05 53Z" fill="#49C2E0"/>
<path fill-rule="evenodd" clip-rule="evenodd" d="M32.55 53C33.1299 53 33.6 53.4477 33.6 54V56C33.6 56.5523 33.1299 57 32.55 57C31.9701 57 31.5 56.5523 31.5 56V54C31.5 53.4477 31.9701 53 32.55 53Z" fill="#49C2E0"/>
<path fill-rule="evenodd" clip-rule="evenodd" d="M49.3501 63V61.5C49.3501 55.1487 43.9439 50 37.2751 50C30.6063 50 25.2001 55.1487 25.2001 61.5V63H49.3501ZM37.2751 48C29.4465 48 23.1001 54.0442 23.1001 61.5V65H51.4501V61.5C51.4501 54.0442 45.1037 48 37.2751 48Z" fill="#49C2E0"/>
<path fill-rule="evenodd" clip-rule="evenodd" d="M36.735 44.6656C37.0459 44.745 37.3656 44.5692 37.4489 44.2731C37.5322 43.9769 37.3477 43.6725 37.0367 43.5932C36.7258 43.5138 36.4062 43.6896 36.3228 43.9857C36.2395 44.2819 36.424 44.5863 36.735 44.6656ZM36.1915 46.5975C37.6227 46.9627 39.0938 46.1538 39.4773 44.7907C39.8608 43.4276 39.0115 42.0266 37.5802 41.6613C36.149 41.2961 34.6779 42.105 34.2944 43.4681C33.9109 44.8311 34.7602 46.2322 36.1915 46.5975Z" fill="#49C2E0"/>
<path fill-rule="evenodd" clip-rule="evenodd" d="M35.9551 49.3818L35.9551 46.3818L38.0551 46.3818L38.0551 49.3818L35.9551 49.3818Z" fill="#49C2E0"/>
<path d="M60 54.2338V39.7662C60 38.9889 60.848 38.5088 61.5145 38.9087L73.5708 46.1425C74.2182 46.5309 74.2182 47.4691 73.5708 47.8575L61.5145 55.0913C60.848 55.4912 60 55.0111 60 54.2338Z" stroke="#287CAB" stroke-width="2"/>
</svg>
